<svg width="34" height="34" viewBox="0 0 34 34" fill="none" xmlns="http://www.w3.org/2000/svg">
    <path d="M21.3442 30.0008C18.9277 30.0008 16.4649 29.2626 13.8745 27.7692C8.6543 24.7596 5.61712 24.9156 2.9375 26.5546C5.99697 31.0488 11.1539 34 17.0005 34C23.3679 34 28.9181 30.4991 31.8308 25.3166C29.0422 27.7951 26.3228 29.2659 23.5824 29.7884C22.8389 29.9299 22.0942 30.0008 21.3442 30.0008Z" fill="#2C6B8A"/>
    <path d="M15.6449 24.1576C19.0522 26.0402 23.1604 25.9859 26.6346 24.012C30.6253 21.7447 33.1225 17.3673 33.3365 12.2813C33.1581 11.6606 32.9449 11.055 32.6992 10.4659C32.5995 11.8313 32.3409 13.1508 31.9245 14.412C31.2654 16.4098 30.245 18.1756 28.8918 19.6602C26.697 22.0686 23.8593 23.4498 21.1059 23.4498C18.2126 23.4498 15.9903 22.3398 13.8413 21.2659C11.6668 20.1795 9.61271 19.1534 6.86174 19.1534C4.00699 19.1534 2.40489 19.7717 0.490234 21.0697C0.618743 21.5935 0.771575 22.1079 0.947919 22.6118C2.84555 21.6275 4.56562 21.0486 6.46122 21.0361C8.90815 21.0211 11.6555 21.9539 15.6449 24.1576Z" fill="url(#paint0_linear_540_844)"/>
    <path d="M6.86162 18.0658C9.86921 18.0658 12.1357 19.198 14.3273 20.293C16.4572 21.3571 18.4687 22.3621 21.1054 22.3621C23.5539 22.3621 26.0982 21.1102 28.0874 18.9272C30.5834 16.1884 31.8296 12.4588 31.6386 8.35143C28.6793 3.35216 23.2308 0 17 0C7.61119 0 0 7.61118 0 17C0 17.9977 0.0859424 18.9751 0.250936 19.9253C0.923883 19.4911 1.57048 19.138 2.25964 18.8563C3.59662 18.3098 5.01629 18.0658 6.86162 18.0658Z" fill="url(#paint1_linear_540_844)"/>
    <path d="M33.9533 15.7234C33.5876 17.2254 33.0164 18.6333 32.2446 19.9358C30.9919 22.0475 29.2382 23.7842 27.1723 24.9582C25.3396 25.9996 23.2903 26.5761 21.2472 26.6247C21.1535 26.6268 21.0591 26.628 20.9654 26.628C18.9364 26.628 16.9212 26.1054 15.1193 25.1098C8.60022 21.5083 5.70817 21.3482 1.34375 23.6346C1.63806 24.3282 1.97737 24.9983 2.35722 25.6409C3.78338 24.7733 5.18482 24.3456 6.67422 24.3116C8.89372 24.2621 11.3548 25.0608 14.418 26.8266C20.9216 30.5765 26.6928 29.2853 33.048 22.624C33.6646 20.8638 34.0003 18.9714 34.0003 17C34.0003 16.5707 33.9845 16.145 33.9533 15.7234Z" fill="url(#paint2_linear_540_844)"/>
    <path d="M14.4182 26.8266C11.355 25.0607 8.89392 24.2621 6.67442 24.3116C5.18501 24.3456 3.78318 24.7733 2.35742 25.6409C2.54147 25.9518 2.73484 26.2566 2.93835 26.5546C5.61797 24.9156 8.65474 24.7595 13.8753 27.7691C16.4654 29.2626 18.9285 30.0008 21.3451 30.0008C22.0946 30.0008 22.8397 29.9299 23.5828 29.7884C26.3232 29.2662 29.0426 27.7955 31.8313 25.3165C32.3113 24.462 32.7199 23.5616 33.0487 22.6235C26.693 29.2853 20.9218 30.5765 14.4182 26.8266Z" fill="white"/>
    <path d="M15.1185 25.1102C16.92 26.1059 18.9352 26.6284 20.9646 26.6284C21.0582 26.6284 21.1527 26.6272 21.2463 26.6252C23.2895 26.5761 25.3387 26.0001 27.1715 24.9586C29.2374 23.785 30.9911 22.0483 32.2437 19.9362C33.016 18.6341 33.5868 17.2258 33.9525 15.7238C33.8645 14.5381 33.6549 13.3872 33.3359 12.2817C33.1218 17.3677 30.6246 21.7451 26.634 24.0124C23.1598 25.9863 19.0516 26.0406 15.6443 24.158C11.6548 21.9543 8.9079 21.0215 6.46056 21.0369C4.56496 21.0494 2.84489 21.6283 0.947266 22.6126C1.06848 22.9592 1.20023 23.3002 1.34252 23.6354C5.70735 21.3482 8.5994 21.5083 15.1185 25.1102Z" fill="white"/>
    <path d="M13.8422 21.2663C15.9912 22.3402 18.2131 23.4502 21.1068 23.4502C23.8606 23.4502 26.6983 22.0686 28.8927 19.6606C30.2459 18.1756 31.2663 16.4102 31.9254 14.4124C32.3418 13.1512 32.6004 11.8317 32.7001 10.4663C32.3949 9.73381 32.0402 9.02762 31.64 8.35184C31.831 12.4592 30.5848 16.1888 28.0888 18.9276C26.1 21.1102 23.5554 22.3625 21.1068 22.3625C18.4702 22.3625 16.4582 21.3575 14.3287 20.2934C12.1372 19.1984 9.87063 18.0662 6.86305 18.0662C5.01771 18.0662 3.59804 18.3098 2.26066 18.8567C1.5715 19.1384 0.9249 19.4915 0.251953 19.9257C0.318437 20.312 0.398704 20.6939 0.491538 21.0705C2.40619 19.7725 4.00829 19.1542 6.86305 19.1542C9.61361 19.1538 11.6677 20.1799 13.8422 21.2663Z" fill="white"/>
    <path d="M28.2094 7.97158C28.106 7.85118 27.9552 7.78226 27.7967 7.78226C25.7722 7.78226 23.918 8.22454 22.2851 9.09735C20.8865 9.84448 19.6841 10.9017 18.808 12.1544C18.2024 13.0203 17.7698 13.9576 17.5566 14.8652C17.5517 14.8867 17.5473 14.9074 17.5428 14.9289V10.6196C17.9612 10.528 18.4403 10.3289 18.8603 9.97623C19.7048 9.2672 20.1328 8.15117 20.1328 6.65852C20.1328 3.38338 17.5294 1.40549 17.3263 1.25631C17.3251 1.25549 17.3239 1.25468 17.3227 1.25347C17.3207 1.25185 17.3186 1.25063 17.3174 1.24941C17.3138 1.24698 17.3101 1.24495 17.3069 1.24252C17.2963 1.23523 17.2858 1.22793 17.2748 1.22185C17.2684 1.2182 17.2619 1.21496 17.2554 1.21131C17.2465 1.20644 17.2376 1.20158 17.2282 1.19752C17.2197 1.19347 17.2108 1.19023 17.2019 1.18658C17.1946 1.18374 17.1873 1.1805 17.18 1.17807C17.1699 1.17442 17.1597 1.17158 17.1492 1.16834C17.1427 1.16631 17.1366 1.16469 17.1301 1.16307C17.1196 1.16023 17.1086 1.1582 17.0977 1.15617C17.0912 1.15496 17.0847 1.15374 17.0782 1.15253C17.0681 1.1509 17.0576 1.15009 17.047 1.14888C17.0397 1.14807 17.0324 1.14766 17.0251 1.14726C17.0158 1.14685 17.0065 1.14685 16.9972 1.14685C16.9886 1.14685 16.9801 1.14685 16.9716 1.14726C16.9635 1.14766 16.9554 1.14847 16.9473 1.14928C16.9376 1.15009 16.9278 1.15131 16.9185 1.15253C16.9112 1.15374 16.9043 1.15496 16.897 1.15617C16.8869 1.1582 16.8768 1.16023 16.8666 1.16266C16.8593 1.16428 16.8524 1.16671 16.8455 1.16874C16.8358 1.17158 16.8261 1.17442 16.8168 1.17766C16.8087 1.1805 16.8009 1.18374 16.7932 1.18698C16.7851 1.19023 16.7766 1.19347 16.7689 1.19712C16.7592 1.20158 16.7499 1.20644 16.7405 1.21171C16.7345 1.21496 16.7284 1.2182 16.7223 1.22144C16.711 1.22793 16.7004 1.23523 16.6895 1.24252C16.6862 1.24495 16.6826 1.24698 16.6793 1.24941C16.6781 1.25022 16.6761 1.25185 16.6741 1.25306C16.6728 1.25387 16.6716 1.25509 16.6704 1.2559C16.4669 1.40549 13.8643 3.38298 13.8643 6.65812C13.8643 8.15076 14.2924 9.2668 15.1368 9.97582C15.5572 10.3285 16.036 10.5276 16.4543 10.6192V14.9285C16.4495 14.9074 16.4454 14.8863 16.4406 14.8648C16.2277 13.9576 15.7948 13.0199 15.1891 12.154C14.3131 10.9013 13.1107 9.84407 11.7121 9.09694C10.0792 8.22454 8.22493 7.78186 6.20042 7.78186C6.04191 7.78186 5.89111 7.85118 5.78773 7.97117C5.68436 8.09157 5.63855 8.25089 5.66247 8.40778C6.23204 12.1438 7.65536 14.8198 9.89311 16.3611C11.6002 17.5367 13.3965 17.7812 14.5948 17.7812C15.033 17.7812 15.391 17.7484 15.6355 17.7167C16.2208 18.5389 16.4543 19.1178 16.4543 19.434V22.1124C16.4543 22.4128 16.698 22.6564 16.9984 22.6564C17.2988 22.6564 17.5424 22.4128 17.5424 22.1124V19.434C17.5424 19.1178 17.7759 18.5389 18.3613 17.7167C18.6061 17.7484 18.9637 17.7812 19.4019 17.7812C20.6003 17.7812 22.3969 17.5367 24.1036 16.3611C26.3414 14.8198 27.7647 12.1443 28.3343 8.40778C28.3586 8.2513 28.3128 8.09157 28.2094 7.97158ZM14.9528 6.65812C14.9528 5.506 15.3444 4.39929 16.1171 3.36879C16.441 2.93664 16.7681 2.60828 16.9992 2.39829C17.6446 2.98407 19.0448 4.50347 19.0448 6.65812C19.0448 7.81429 18.7472 8.6498 18.1606 9.14234C17.951 9.31828 17.7329 9.42571 17.5428 9.49138V5.74599C17.5428 5.4456 17.2992 5.20196 16.9988 5.20196C16.6984 5.20196 16.4547 5.4456 16.4547 5.74599V9.49138C16.2646 9.42571 16.0465 9.31828 15.8369 9.14234C15.2503 8.6498 14.9528 7.81388 14.9528 6.65812ZM14.0459 16.6712C12.7199 16.5772 11.526 16.1681 10.4975 15.4563C8.65059 14.1777 7.42388 11.9691 6.84742 8.88654C11.2605 9.11559 13.5136 11.6562 14.2981 12.7779C14.9957 13.7755 15.4169 14.875 15.4911 15.8017C15.3468 15.6387 15.2033 15.4818 15.0626 15.3318C13.7103 13.8899 11.9914 12.4236 10.577 11.5058C10.3249 11.342 9.98797 11.4137 9.8246 11.6659C9.66082 11.918 9.73258 12.2549 9.98473 12.4183C11.3306 13.2919 12.9725 14.6937 14.2693 16.0761C14.4687 16.289 14.6524 16.4925 14.8206 16.6874C14.5924 16.6939 14.3313 16.6915 14.0459 16.6712ZM23.5 15.4563C22.4715 16.1681 21.2777 16.5772 19.9516 16.6712C19.6662 16.6915 19.4052 16.6939 19.1773 16.6874C19.346 16.4925 19.5292 16.2885 19.7287 16.0761C21.0255 14.6937 22.6669 13.2919 24.0132 12.4183C24.2654 12.2545 24.3367 11.9176 24.1734 11.6659C24.0096 11.4137 23.6727 11.3424 23.421 11.5058C22.0066 12.424 20.2877 13.8899 18.9353 15.3318C18.7951 15.4814 18.6511 15.6387 18.5072 15.8013C18.5814 14.8745 19.0026 13.7747 19.7003 12.7775C20.4847 11.6562 22.7375 9.11559 27.1505 8.88654C26.5733 11.9691 25.347 14.1773 23.5 15.4563Z" fill="white"/>
    <defs>
        <linearGradient id="paint0_linear_540_844" x1="16.9132" y1="0.297891" x2="16.9132" y2="28.1696" gradientUnits="userSpaceOnUse">
            <stop stop-color="#9CE9DB"/>
            <stop offset="1" stop-color="#50A6DF"/>
        </linearGradient>
        <linearGradient id="paint1_linear_540_844" x1="15.829" y1="0.297884" x2="15.829" y2="28.1696" gradientUnits="userSpaceOnUse">
            <stop stop-color="#9CE9DB"/>
            <stop offset="1" stop-color="#50A6DF"/>
        </linearGradient>
        <linearGradient id="paint2_linear_540_844" x1="17.672" y1="0.297871" x2="17.672" y2="28.1696" gradientUnits="userSpaceOnUse">
            <stop stop-color="#9CE9DB"/>
            <stop offset="1" stop-color="#50A6DF"/>
        </linearGradient>
    </defs>
</svg>
