<svg width="15" height="14" viewBox="0 0 15 14" fill="none" xmlns="http://www.w3.org/2000/svg">
    <path d="M4.55273 1.75V3.0625M10.6777 1.75V3.0625M2.36523 10.9375V4.375C2.36523 4.0269 2.50352 3.69306 2.74966 3.44692C2.9958 3.20078 3.32964 3.0625 3.67773 3.0625H11.5527C11.9008 3.0625 12.2347 3.20078 12.4808 3.44692C12.727 3.69306 12.8652 4.0269 12.8652 4.375V10.9375M2.36523 10.9375C2.36523 11.2856 2.50352 11.6194 2.74966 11.8656C2.9958 12.1117 3.32964 12.25 3.67773 12.25H11.5527C11.9008 12.25 12.2347 12.1117 12.4808 11.8656C12.727 11.6194 12.8652 11.2856 12.8652 10.9375M2.36523 10.9375V6.5625C2.36523 6.2144 2.50352 5.88056 2.74966 5.63442C2.9958 5.38828 3.32964 5.25 3.67773 5.25H11.5527C11.9008 5.25 12.2347 5.38828 12.4808 5.63442C12.727 5.88056 12.8652 6.2144 12.8652 6.5625V10.9375" stroke="#088408" stroke-width="0.875" stroke-linecap="round" stroke-linejoin="round"/>
</svg>
