<svg width="36" height="36" viewBox="0 0 36 36" fill="none" xmlns="http://www.w3.org/2000/svg">
    <rect width="36" height="36" rx="18" fill="#4BA3C3"/>
    <path d="M20.2199 27.63C19.0399 27.63 17.3699 26.8 16.0499 22.83L15.3299 20.67L13.1699 19.95C9.20988 18.63 8.37988 16.96 8.37988 15.78C8.37988 14.61 9.20988 12.93 13.1699 11.6L21.6599 8.76999C23.7799 8.05999 25.5499 8.26999 26.6399 9.34999C27.7299 10.43 27.9399 12.21 27.2299 14.33L24.3999 22.82C23.0699 26.8 21.3999 27.63 20.2199 27.63ZM13.6399 13.03C10.8599 13.96 9.86988 15.06 9.86988 15.78C9.86988 16.5 10.8599 17.6 13.6399 18.52L16.1599 19.36C16.3799 19.43 16.5599 19.61 16.6299 19.83L17.4699 22.35C18.3899 25.13 19.4999 26.12 20.2199 26.12C20.9399 26.12 22.0399 25.13 22.9699 22.35L25.7999 13.86C26.3099 12.32 26.2199 11.06 25.5699 10.41C24.9199 9.75999 23.6599 9.67999 22.1299 10.19L13.6399 13.03Z" fill="#D1D5DB"/>
    <path d="M16.1098 20.4C15.9198 20.4 15.7298 20.33 15.5798 20.18C15.2898 19.89 15.2898 19.41 15.5798 19.12L19.1598 15.53C19.4498 15.24 19.9298 15.24 20.2198 15.53C20.5098 15.82 20.5098 16.3 20.2198 16.59L16.6398 20.18C16.4998 20.33 16.2998 20.4 16.1098 20.4Z" fill="#D1D5DB"/>
</svg>
