<svg width="36" height="36" viewBox="0 0 36 36" fill="none" xmlns="http://www.w3.org/2000/svg">
    <rect width="36" height="36" rx="18" fill="#1C4A5A"/>
    <path d="M20.22 27.6301C19.04 27.6301 17.37 26.8001 16.05 22.8301L15.33 20.6701L13.17 19.9501C9.21 18.6301 8.38 16.9601 8.38 15.7801C8.38 14.6101 9.21 12.9301 13.17 11.6001L21.66 8.77007C23.78 8.06007 25.55 8.27007 26.64 9.35007C27.73 10.4301 27.94 12.2101 27.23 14.3301L24.4 22.8201C23.07 26.8001 21.4 27.6301 20.22 27.6301ZM13.64 13.0301C10.86 13.9601 9.87 15.0601 9.87 15.7801C9.87 16.5001 10.86 17.6001 13.64 18.5201L16.16 19.3601C16.38 19.4301 16.56 19.6101 16.63 19.8301L17.47 22.3501C18.39 25.1301 19.5 26.1201 20.22 26.1201C20.94 26.1201 22.04 25.1301 22.97 22.3501L25.8 13.8601C26.31 12.3201 26.22 11.0601 25.57 10.4101C24.92 9.76007 23.66 9.68007 22.13 10.1901L13.64 13.0301Z" fill="white"/>
    <path d="M16.11 20.4C15.92 20.4 15.73 20.33 15.58 20.18C15.29 19.89 15.29 19.41 15.58 19.12L19.16 15.53C19.45 15.24 19.93 15.24 20.22 15.53C20.51 15.82 20.51 16.3 20.22 16.59L16.64 20.18C16.5 20.33 16.3 20.4 16.11 20.4Z" fill="white"/>
</svg>
