<svg width="48" height="48" viewBox="0 0 48 48" fill="none" xmlns="http://www.w3.org/2000/svg">
    <g clip-path="url(#clip0_241_1083)">
        <path d="M5.53703 31.9961L0.329516 44.0686C-0.120191 45.1119 0.0826896 46.2754 0.859057 47.1049C1.40618 47.689 2.13677 47.9999 2.89556 47.9999C3.21379 47.9999 3.53752 47.9449 3.85393 47.8325L11.7817 45.0145L5.53703 31.9961Z" fill="#4BA3C3"/>
        <path d="M10.4777 20.541L7.01367 28.5724L14.4463 44.0671L20.6971 41.8453L10.4777 20.541Z" fill="#4BA3C3"/>
        <path d="M45.3318 9.3938C44.5627 9.50403 44.0288 10.2163 44.139 10.985C44.1793 11.2681 44.2123 11.5431 44.2416 11.8145C44.5759 14.917 44.1753 17.2688 43.0195 18.9816C41.7619 20.8445 39.4306 21.9373 37.2184 21.7003C36.7013 21.6447 36.1922 21.5168 35.7059 21.3268C35.7949 21.1733 35.8773 21.0162 35.9527 20.8562C36.3596 19.9949 36.5284 19.0035 36.4625 18.0195C36.412 17.2688 36.2252 16.5228 35.9011 15.8413C35.2547 14.4819 34.1664 13.5525 32.8359 13.224C31.3681 12.8618 29.7499 13.8374 29.228 15.3986C28.8874 16.4174 28.9772 17.5826 29.4946 18.8618C29.9245 19.9249 30.5541 20.8848 31.3293 21.7C30.6291 22.0731 29.8059 22.3441 28.901 22.4869C28.1338 22.6082 27.6101 23.3281 27.7313 24.0953C27.8404 24.7882 28.4385 25.2822 29.1185 25.2822C29.1914 25.2822 29.2654 25.2767 29.3393 25.265C31.0199 24.9995 32.5217 24.3846 33.7134 23.5083C34.7036 24.0324 35.7901 24.3755 36.9188 24.4963C37.2261 24.5293 37.5329 24.5454 37.8398 24.5454C40.797 24.5454 43.6721 23.0414 45.3504 20.5548C47.0156 18.0876 47.5298 14.8269 46.923 10.5865C46.8127 9.81787 46.0997 9.28357 45.3318 9.3938ZM31.8955 16.2899C31.9526 16.1193 32.1105 15.9863 32.1877 15.9614C32.8407 16.1354 33.2025 16.7155 33.3611 17.0491C33.7511 17.869 33.7701 18.8922 33.4098 19.6558C33.3951 19.6869 33.3797 19.718 33.364 19.7488C32.8282 19.1859 32.3932 18.5282 32.102 17.8075C31.8464 17.1754 31.775 16.6506 31.8955 16.2899Z" fill="#4BA3C3"/>
        <path d="M37.8063 29.8752C37.8063 28.8982 37.0233 28.1064 36.0576 28.1064C35.0916 28.1064 34.3086 28.8982 34.3086 29.8752C34.3086 30.8519 35.0916 31.6437 36.0576 31.6437C37.0233 31.6437 37.8063 30.8519 37.8063 29.8752Z" fill="#4BA3C3"/>
        <path d="M40.4186 10.8016C40.4186 9.82495 39.6356 9.0332 38.6696 9.0332C37.7039 9.0332 36.9209 9.82495 36.9209 10.8016C36.9209 11.7783 37.7039 12.5701 38.6696 12.5701C39.6356 12.5701 40.4186 11.7783 40.4186 10.8016Z" fill="#4BA3C3"/>
        <path d="M43.9399 8.00574C46.1295 8.00574 47.9111 6.21021 47.9111 4.00305C47.9111 1.79553 46.1299 0 43.9399 0C41.75 0 39.9688 1.79553 39.9688 4.00305C39.9688 6.21021 41.7504 8.00574 43.9399 8.00574Z" fill="#4BA3C3"/>
        <path d="M25.3082 16.8446C25.3082 15.8679 24.5253 15.0762 23.5592 15.0762C22.5935 15.0762 21.8105 15.8679 21.8105 16.8446C21.8105 17.8213 22.5935 18.613 23.5592 18.613C24.5253 18.613 25.3082 17.8213 25.3082 16.8446Z" fill="#4BA3C3"/>
        <path d="M34.4219 3.77722C34.4219 2.80054 33.6385 2.00879 32.6729 2.00879C31.7068 2.00879 30.9238 2.80054 30.9238 3.77722C30.9238 4.75427 31.7068 5.54602 32.6729 5.54602C33.6385 5.54602 34.4219 4.75427 34.4219 3.77722Z" fill="#4BA3C3"/>
        <path d="M22.9102 9.58728H23.5675V10.2699C23.5675 11.0466 24.197 11.6761 24.9738 11.6761C25.7505 11.6761 26.38 11.0466 26.38 10.2699V9.58728H27.0374C27.8141 9.58728 28.4436 8.9574 28.4436 8.18103C28.4436 7.4043 27.8141 6.77478 27.0374 6.77478H26.38V6.0918C26.38 5.31543 25.7505 4.68555 24.9738 4.68555C24.197 4.68555 23.5675 5.31543 23.5675 6.0918V6.77478H22.9102C22.1334 6.77478 21.5039 7.4043 21.5039 8.18103C21.5039 8.9574 22.1334 9.58728 22.9102 9.58728Z" fill="#4BA3C3"/>
        <path d="M14.18 12.9831C13.6548 12.4107 12.7653 12.3723 12.1929 12.8971C11.6205 13.4222 11.5824 14.3117 12.1072 14.8841L12.6587 15.4855L11.9549 17.1177L23.3623 40.8987L32.8695 37.5193L33.272 37.958C33.5496 38.2605 33.9286 38.4136 34.3087 38.4136C34.6486 38.4136 34.9888 38.2912 35.2591 38.0437C35.8314 37.5185 35.8695 36.629 35.3448 36.057L14.18 12.9831Z" fill="#4BA3C3"/>
    </g>
    <defs>
        <clipPath id="clip0_241_1083">
            <rect width="48" height="48" fill="white"/>
        </clipPath>
    </defs>
</svg>
