<svg width="22" height="22" viewBox="0 0 22 22" fill="none" xmlns="http://www.w3.org/2000/svg">
    <g clip-path="url(#clip0_113_6437)">
        <path d="M4.16797 0.691797C3.26133 0.794922 2.39766 1.20313 1.84336 1.7875C1.11289 2.56094 0.773438 3.54492 0.773438 4.88555V5.32812L1.1043 5.30234C1.57695 5.26797 1.55547 5.28086 1.52539 4.99727C1.49102 4.68359 1.56836 3.97031 1.67578 3.58359C1.89062 2.81875 2.43633 2.12695 3.07227 1.79609C3.63516 1.50391 3.95312 1.43945 4.85547 1.43945C5.29375 1.43945 5.74062 1.45234 5.84805 1.46953L6.05 1.49961L6.11445 1.14727C6.14883 0.953907 6.17031 0.786328 6.16172 0.777735C6.15313 0.764844 5.95547 0.734766 5.72344 0.704688C5.25508 0.640235 4.65352 0.635938 4.16797 0.691797Z" fill="#111111"/>
        <path d="M8.67969 0.717383C8.525 0.751758 8.09961 0.846289 7.73438 0.927929C7.02109 1.08262 6.91797 1.13848 6.91797 1.37051C6.91797 1.43066 6.99531 1.86035 7.09414 2.32441L7.27461 3.1666L7.61836 3.09785C7.80742 3.05918 7.9707 3.00762 7.9793 2.98184C7.98789 2.95605 7.94492 2.71973 7.88906 2.45332C7.82031 2.13535 7.80313 1.97637 7.8332 1.98926C8.58945 2.29004 8.85586 2.40605 9.31562 2.63809C11.1203 3.54473 12.7402 4.69199 14.4289 6.26895L15.0477 6.84473L15.3098 6.57832L15.5762 6.30762L15.168 5.9209C14.2141 5.01426 13.2945 4.24941 12.3191 3.55762L11.7691 3.1666L11.8766 3.09785C11.9367 3.05488 12.1043 2.96895 12.2461 2.9002C12.3879 2.83145 12.5039 2.7498 12.5039 2.71973C12.5039 2.6209 12.2289 2.10527 12.173 2.10527C12.1301 2.10527 11.275 2.54785 11.2234 2.59941C11.2148 2.60801 11.2406 2.67246 11.2793 2.74551C11.3137 2.81855 11.3395 2.87871 11.3266 2.87871C11.318 2.87871 11.1074 2.7584 10.8625 2.6166C10.2738 2.26426 9.46602 1.84316 9.05781 1.67129C8.87305 1.59824 8.72266 1.5209 8.72266 1.49941C8.72266 1.48223 8.80859 1.45215 8.90742 1.43926C9.2125 1.39199 9.2168 1.3877 9.13086 0.992383C9.08789 0.80332 9.03203 0.644336 9.00625 0.648633C8.98047 0.648633 8.83438 0.678711 8.67969 0.717383Z" fill="#111111"/>
        <path d="M16.0273 0.837566C15.1164 0.953581 14.4332 1.14694 13.0969 1.65827C12.9809 1.70124 12.8906 1.76139 12.8906 1.78717C12.8906 1.83444 13.1313 2.40592 13.1656 2.436C13.1742 2.4446 13.3332 2.38444 13.518 2.3071C14.8414 1.74421 16.2852 1.46061 17.3723 1.55085C17.9094 1.59382 18.2359 1.68405 18.7129 1.91608C19.873 2.47897 20.4488 3.75944 20.2898 5.41374C20.2598 5.70592 20.2469 5.95085 20.2598 5.96374C20.2812 5.98522 20.9387 6.09694 20.9602 6.07975C20.9945 6.04967 21.0504 5.35788 21.0547 4.92819C21.0547 3.62194 20.6938 2.61217 19.9547 1.87311C19.0781 0.99655 17.6645 0.622722 16.0273 0.837566Z" fill="#111111"/>
        <path d="M9.3371 3.81523C9.04921 4.02148 8.81288 4.20624 8.81288 4.22343C8.80859 4.27929 9.21249 4.80781 9.25117 4.79921C9.3371 4.77343 10.3082 4.05585 10.3082 4.01718C10.3082 3.95703 9.95585 3.46718 9.90429 3.45429C9.88281 3.4457 9.62499 3.60898 9.3371 3.81523Z" fill="#111111"/>
        <path d="M7.26172 5.49962C7.00391 5.74024 6.78906 5.94649 6.78906 5.96368C6.78906 5.98087 6.89219 6.10977 7.02109 6.25157C7.2918 6.55235 7.23594 6.57384 7.86328 5.98087L8.27148 5.59415L8.05234 5.34493C7.93633 5.20743 7.81602 5.09141 7.78594 5.07852C7.76016 5.06993 7.52383 5.25899 7.26172 5.49962Z" fill="#111111"/>
        <path d="M1.35782 6.49226C1.16875 6.53953 1.00977 6.5825 1.00117 6.59109C0.97969 6.61258 1.28907 7.66531 1.32774 7.70398C1.35352 7.72976 1.95508 7.55359 2.00664 7.50203C2.02383 7.48914 1.73164 6.4407 1.70586 6.41922C1.70157 6.41492 1.54258 6.44929 1.35782 6.49226Z" fill="#111111"/>
        <path d="M5.81796 6.90508C4.53749 8.27578 3.63945 9.44023 2.75859 10.8625C2.41054 11.4211 1.90781 12.3578 1.71874 12.8047C1.61992 13.0281 1.52538 13.2258 1.5082 13.243C1.49101 13.2645 1.45234 13.1613 1.42226 13.0152C1.37499 12.7789 1.3621 12.7574 1.27617 12.7746C1.2246 12.7875 1.06562 12.8219 0.923822 12.852C0.782025 12.882 0.661713 12.9078 0.653119 12.9164C0.644525 12.9207 0.730463 13.359 0.846478 13.8832C1.07421 14.9488 1.11288 15.0391 1.38788 15.0391C1.46953 15.0391 1.89921 14.9617 2.34179 14.8672C2.78437 14.7727 3.1539 14.6953 3.1582 14.6953C3.17538 14.6953 3.0207 14.0035 2.99492 13.982C2.98632 13.9734 2.75859 14.0121 2.48788 14.068C2.22148 14.1281 1.99374 14.1711 1.98945 14.1625C1.95937 14.1324 2.40624 13.1055 2.68984 12.5426C3.5621 10.8195 4.70507 9.22109 6.26484 7.53672L6.82773 6.93086L6.55703 6.66445L6.29062 6.39805L5.81796 6.90508Z" fill="#111111"/>
        <path d="M19.5121 6.63867C19.0781 6.76758 18.7129 6.8793 18.7043 6.89219C18.6871 6.90938 18.8547 7.5668 18.8848 7.59688C18.8934 7.60547 19.0996 7.54961 19.3488 7.48086C19.5981 7.40781 19.8215 7.34766 19.843 7.34766C19.9289 7.34766 19.4691 8.54648 19.0953 9.28555C18.2359 11.0086 17.0113 12.7402 15.5633 14.3L15.1078 14.7855L15.3785 15.052L15.6449 15.3184L16.0145 14.9316C16.818 14.0809 17.875 12.7574 18.4895 11.8336C19.1727 10.8023 19.8688 9.50899 20.2383 8.57227L20.4274 8.09961L20.509 8.37891C20.552 8.53359 20.5992 8.6668 20.6078 8.67539C20.6164 8.68398 20.7797 8.64961 20.9731 8.59375C21.2395 8.51641 21.3168 8.47774 21.2996 8.42617C21.0848 7.61836 20.7668 6.58711 20.7152 6.52266C20.5863 6.36797 20.3629 6.38945 19.5121 6.63867Z" fill="#111111"/>
        <path d="M15.7137 7.03828L15.4644 7.2918L15.8984 7.76875C16.1391 8.03516 16.3453 8.25 16.3582 8.25C16.3711 8.25 16.4699 8.17695 16.5773 8.08672C16.6805 8.00078 16.8051 7.89766 16.8523 7.85898C16.9383 7.79023 16.9297 7.77734 16.4957 7.30039C16.2551 7.02969 16.0316 6.80625 16.0102 6.79766C15.9844 6.79336 15.8512 6.90078 15.7137 7.03828Z" fill="#111111"/>
        <path d="M10.3598 6.87477C9.25547 6.9693 8.42618 7.27868 8.09102 7.71696L7.97071 7.87594L7.95782 10.9095C7.95352 12.5767 7.95782 13.9861 7.97071 14.042C8.00938 14.2052 8.33594 14.5232 8.59376 14.6521C9.35001 15.0259 10.4887 15.1892 11.6445 15.0818C13.0496 14.9529 13.9133 14.5361 14.0465 13.9259C14.1109 13.6295 14.1109 8.30993 14.0465 8.03493C13.9563 7.64391 13.5996 7.35172 12.9465 7.13688C12.2547 6.90914 11.2106 6.80172 10.3598 6.87477ZM11.8379 7.64821C12.4953 7.74274 13.2043 7.99625 13.2645 8.15094C13.3289 8.31422 12.8734 8.53766 12.1602 8.69235C11.6102 8.80836 10.4285 8.81696 9.86993 8.70524C9.41016 8.615 8.95899 8.45602 8.78712 8.31852L8.65821 8.21539L8.74415 8.12086C8.90313 7.94039 9.47032 7.74274 10.0848 7.6525C10.4371 7.60094 11.4813 7.60094 11.8379 7.64821ZM9.01915 9.25524C9.59063 9.46149 10.0031 9.51305 11 9.51305C11.9797 9.51305 12.491 9.4443 13.0324 9.23805C13.157 9.19079 13.2731 9.15211 13.2902 9.15211C13.3074 9.15211 13.316 9.37125 13.3117 9.63336L13.2988 10.1189L13.041 10.2564C11.9969 10.8064 9.62501 10.7634 8.80001 10.1791C8.67969 10.0931 8.67969 10.0888 8.67969 9.62047C8.67969 9.36266 8.69258 9.15211 8.70547 9.15211C8.72266 9.15211 8.86016 9.19938 9.01915 9.25524ZM9.00196 11.1029C9.65508 11.322 9.96446 11.365 11 11.365C12.0356 11.3607 12.3449 11.322 12.9852 11.1029C13.1527 11.047 13.2988 10.9998 13.3074 10.9998C13.316 10.9998 13.3203 11.2103 13.3203 11.4724V11.9451L13.157 12.0525C12.9551 12.1857 12.5813 12.3146 12.1387 12.4091C11.7004 12.4994 10.291 12.508 9.9043 12.4263C9.41876 12.3189 9.0879 12.2072 8.88165 12.0783L8.67969 11.9451V11.4724C8.67969 11.2146 8.68399 10.9998 8.69258 10.9998C8.69688 10.9998 8.83868 11.047 9.00196 11.1029ZM8.93751 12.9377C9.43594 13.1267 9.86993 13.1955 10.7422 13.2213C11.8379 13.2513 12.5039 13.1568 13.2473 12.8689C13.316 12.8388 13.3203 12.8775 13.3203 13.3115V13.7884L13.1828 13.8916C12.7703 14.1881 11.9797 14.3556 10.9785 14.3556C9.96446 14.3556 9.10508 14.1666 8.77852 13.8658C8.68829 13.7841 8.67969 13.7412 8.67969 13.3115C8.67969 13.058 8.68399 12.8474 8.69258 12.8474C8.69688 12.8474 8.8086 12.8861 8.93751 12.9377Z" fill="#111111"/>
        <path d="M2.13554 8.80396L1.80038 8.95865L2.10546 9.5731C2.44492 10.2649 2.38476 10.2305 2.82304 9.9856L3.08515 9.8395L2.78867 9.25513C2.62538 8.92857 2.48788 8.66216 2.48359 8.65786C2.47499 8.65357 2.32031 8.71802 2.13554 8.80396Z" fill="#111111"/>
        <path d="M17.4281 9.02735L17.1402 9.2422L17.3035 9.46563C17.7977 10.1488 17.9266 10.3164 17.9566 10.3035C17.9738 10.2949 18.1113 10.2133 18.2574 10.1188C18.4293 10.007 18.5152 9.9254 18.5066 9.88243C18.4852 9.80079 17.7805 8.81251 17.7418 8.80821C17.7289 8.80821 17.5871 8.90704 17.4281 9.02735Z" fill="#111111"/>
        <path d="M19.1211 11.3694C19.0137 11.4339 18.8848 11.5112 18.8289 11.5456L18.7301 11.6057L18.9578 12.0397C19.0824 12.276 19.207 12.478 19.2328 12.4909C19.2629 12.4995 19.4219 12.4393 19.5894 12.3534L19.8945 12.203L19.6496 11.7303C19.5121 11.4725 19.3832 11.2577 19.3574 11.2577C19.3359 11.2577 19.2285 11.3092 19.1211 11.3694Z" fill="#111111"/>
        <path d="M3.82423 11.7176C3.66954 11.8208 3.54493 11.9325 3.54923 11.9626C3.55352 12.0055 4.17227 12.8907 4.29259 13.0325C4.31837 13.0583 4.71798 12.7833 4.87266 12.6329C4.90274 12.6028 4.22384 11.5973 4.1336 11.5458C4.11641 11.5329 3.97891 11.6102 3.82423 11.7176Z" fill="#111111"/>
        <path d="M19.8 13.0324L19.5121 13.1699L19.641 13.4706C19.8516 13.9605 20.1352 14.8542 20.2555 15.3828C20.6852 17.3464 20.3414 18.8589 19.2801 19.6624C18.5969 20.1781 17.6301 20.3972 16.5215 20.2898C16.2422 20.264 16.0059 20.2468 15.9973 20.2511C15.9672 20.2812 15.8855 20.9257 15.907 20.9515C16.0359 21.0761 17.6516 21.0761 18.2187 20.9472C19.641 20.6292 20.6336 19.7011 21.0031 18.3476C21.3727 17.007 21.175 15.3441 20.423 13.3933C20.2812 13.0324 20.2082 12.8906 20.1566 12.8949C20.118 12.8949 19.959 12.9593 19.8 13.0324Z" fill="#111111"/>
        <path d="M5.43125 13.7973C5.29375 13.9219 5.17773 14.0379 5.17773 14.0594C5.17773 14.1195 6.01992 15.0391 6.07578 15.0391C6.10156 15.0391 6.23477 14.9273 6.36797 14.7898L6.60859 14.5449L6.17891 14.0723C5.94258 13.8102 5.73203 13.5953 5.71914 13.5867C5.70195 13.5824 5.57305 13.677 5.43125 13.7973Z" fill="#111111"/>
        <path d="M6.89648 15.3869L6.63867 15.6447L7.00391 15.9885C7.41211 16.3709 8.68828 17.4494 9.09219 17.7545C10.3641 18.7213 12.057 19.7053 13.3332 20.2166L13.8789 20.4358L13.5781 20.5131C13.4148 20.5561 13.2773 20.6033 13.2773 20.6119C13.2773 20.642 13.4621 21.2865 13.475 21.3037C13.4879 21.3209 15.1293 20.8612 15.3098 20.7881C15.4559 20.7322 15.5547 20.599 15.5547 20.4529C15.5547 20.3455 15.1121 18.7514 15.0691 18.7084C15.0563 18.6912 14.4418 18.8459 14.3645 18.8803C14.3602 18.8846 14.4203 19.108 14.4977 19.3787C14.5793 19.6494 14.6395 19.8772 14.6309 19.8858C14.6137 19.9072 13.8789 19.6365 13.4148 19.4346C11.5586 18.644 9.64219 17.3592 7.78164 15.6705C7.46797 15.3826 7.19727 15.142 7.18008 15.1334C7.16719 15.1291 7.03828 15.2408 6.89648 15.3869Z" fill="#111111"/>
        <path d="M14.0422 15.8039C13.793 16.0316 13.5867 16.2336 13.5824 16.2508C13.5781 16.2895 14.0164 16.8008 14.0551 16.8008C14.1109 16.8008 15.0391 15.9371 15.0391 15.8855C15.0391 15.8211 14.6008 15.3828 14.5449 15.3871C14.5191 15.3871 14.2957 15.5762 14.0422 15.8039Z" fill="#111111"/>
        <path d="M0.751953 15.8641C0.713281 16.0016 0.644531 16.732 0.644531 17.0414C0.644531 18.3047 1.03125 19.3703 1.74453 20.0836C2.48359 20.8227 3.48477 21.1836 4.8082 21.1836H5.32383L5.30234 20.8914C5.26367 20.3973 5.28945 20.4316 4.93281 20.4445C4.33125 20.4746 3.53203 20.3285 3.07227 20.1008C2.27734 19.7141 1.79609 19.1254 1.53828 18.2316C1.45234 17.9395 1.43945 17.7977 1.43945 17.1016C1.43945 16.6633 1.45234 16.2164 1.46953 16.109L1.49961 15.9113L1.20312 15.8598C0.829297 15.7996 0.773438 15.7996 0.751953 15.8641Z" fill="#111111"/>
        <path d="M12.0527 17.4453C11.7691 17.6559 11.5414 17.8535 11.55 17.8836C11.5715 17.9652 11.9109 18.4336 11.9539 18.4336C11.9926 18.4336 13.0195 17.6859 13.0324 17.6473C13.0453 17.6172 12.6199 17.0586 12.5898 17.0586C12.5769 17.0629 12.3363 17.2348 12.0527 17.4453Z" fill="#111111"/>
        <path d="M9.20821 19.1983L8.64102 19.4862L8.79141 19.8042C8.87305 19.9804 8.9461 20.1351 8.95469 20.1437C8.97618 20.1608 10.0977 19.6065 10.1578 19.5507C10.2008 19.5077 9.88282 18.9062 9.81837 18.9104C9.79688 18.9104 9.52188 19.0394 9.20821 19.1983Z" fill="#111111"/>
        <path d="M7.38634 19.9547C7.37774 19.9676 7.1543 20.0364 6.89649 20.1094C6.63438 20.1868 6.41954 20.2512 6.41524 20.2555C6.40235 20.2641 6.56993 20.9344 6.59141 20.9559C6.63009 20.9946 7.73868 20.6551 7.72579 20.6079C7.58829 20.1137 7.46368 19.8774 7.38634 19.9547Z" fill="#111111"/>
    </g>
    <defs>
        <clipPath id="clip0_113_6437">
            <rect width="22" height="22" fill="white"/>
        </clipPath>
    </defs>
</svg>
