<svg width="24" height="24" viewBox="0 0 24 24" fill="none" xmlns="http://www.w3.org/2000/svg">
    <path d="M10.4668 0.0984364C10.2512 0.234375 10.1246 0.529686 10.1246 0.881248V1.16719L7.27929 1.18125C4.49492 1.19531 4.42461 1.19531 4.21367 1.29375C3.90429 1.43906 3.67929 1.65937 3.52929 1.95937L3.39804 2.22656L3.38398 12.5156C3.37461 21.5531 3.38398 22.8328 3.44492 23.0437C3.53398 23.3578 3.87617 23.7422 4.19492 23.8875C4.42461 23.9953 4.45273 24 6.00898 24H7.58867L7.68242 23.8781C7.80429 23.7188 7.80898 23.5781 7.68711 23.4234L7.59336 23.3016L6.09336 23.2875C4.66367 23.2734 4.59336 23.2687 4.46679 23.175C4.39648 23.1234 4.28867 23.0062 4.23242 22.9219L4.12461 22.7672V12.6141C4.12461 2.81719 4.12929 2.45156 4.21367 2.29688C4.26054 2.20781 4.38242 2.08594 4.48086 2.02969L4.66367 1.92188H7.39648H10.1246V2.36719V2.80781L7.86523 2.82187C5.35273 2.83594 5.42304 2.82656 5.19336 3.15L5.08554 3.30469L5.07148 12.5672L5.06211 21.8297L5.16992 21.9891C5.22617 22.0734 5.34804 22.1953 5.43242 22.2516L5.59179 22.3594H11.9996H18.4074L18.5668 22.2516C18.6512 22.1953 18.773 22.0734 18.8293 21.9891L18.9371 21.8297V14.3906V6.95156L18.8293 6.85312C18.6934 6.72656 18.4684 6.72187 18.323 6.83906L18.2105 6.92812L18.1965 14.2687L18.1871 21.6094H11.9996H5.81211V12.5859V3.5625H7.96367H10.1105L10.134 3.93281C10.1527 4.25156 10.1762 4.33125 10.2887 4.47656C10.509 4.76719 10.5793 4.78125 11.9996 4.78125C13.4199 4.78125 13.4902 4.76719 13.7105 4.47656C13.823 4.33125 13.8465 4.25156 13.8652 3.93281L13.8887 3.5625H16.0355H18.1824L18.1965 4.62187C18.2105 5.67188 18.2105 5.68125 18.323 5.77031C18.4777 5.89687 18.7074 5.8875 18.8387 5.74687C18.9418 5.63906 18.9418 5.62031 18.9277 4.47187C18.9137 3.3375 18.909 3.3 18.8059 3.15C18.5762 2.82656 18.6465 2.83594 16.1387 2.82187L13.8746 2.80781V2.3625V1.92188L16.6543 1.93125L19.4293 1.94531L19.5746 2.04844C19.898 2.28281 19.8746 1.38281 19.8746 12.6234V22.7672L19.7715 22.9219C19.7105 23.0062 19.6027 23.1234 19.5324 23.175C19.4012 23.2734 19.3871 23.2734 14.109 23.2969C8.88711 23.3203 8.81679 23.3203 8.74648 23.4141C8.64336 23.55 8.65273 23.775 8.76523 23.8969L8.86367 24H14.2168H19.5699L19.8043 23.8875C20.123 23.7422 20.4652 23.3578 20.5543 23.0437C20.6152 22.8328 20.6246 21.5531 20.6152 12.5156L20.6012 2.22656L20.5027 2.01094C20.3574 1.70156 20.1371 1.47656 19.8371 1.32656L19.5699 1.19531L16.7246 1.18125L13.8746 1.16719V0.881248C13.8746 0.525 13.7434 0.229687 13.5277 0.09375C13.3777 0.00468636 13.298 0 11.9949 0C10.6871 0 10.6074 0.00468636 10.4668 0.0984364ZM13.1246 2.36719V4.03125H11.9996H10.8746V2.36719V0.703125H11.9996H13.1246V2.36719Z" fill="#1C2A45"/>
    <path d="M7.08669 6.20156C6.86169 6.44062 7.007 6.78281 7.3445 6.82968L7.54137 6.85312L7.55544 7.81406C7.5695 8.75625 7.5695 8.775 7.682 8.86406C7.82262 8.98125 8.0195 8.97656 8.17419 8.85468L8.29606 8.76093V7.8V6.84375H8.43669C8.74606 6.84375 8.94762 6.62343 8.87731 6.35625C8.82106 6.12187 8.71794 6.09375 7.92106 6.09375C7.21325 6.09375 7.18512 6.09843 7.08669 6.20156Z" fill="#1C2A45"/>
    <path d="M10.2234 6.17344C10.1156 6.26719 9.28125 8.41406 9.28125 8.60625C9.28125 8.76094 9.47813 8.95312 9.63281 8.95312C9.82969 8.95312 9.9375 8.86875 10.0312 8.64375L10.1203 8.4375H10.4953H10.8656L10.9359 8.62031C10.9781 8.72344 11.0578 8.83594 11.1188 8.87812C11.3391 9.03281 11.6297 8.925 11.6953 8.6625C11.7328 8.52187 10.9172 6.35625 10.7719 6.20156C10.65 6.07031 10.3688 6.05625 10.2234 6.17344ZM10.5234 7.67812C10.4203 7.70156 10.3969 7.67344 10.4344 7.57031C10.4672 7.49062 10.4719 7.49062 10.5328 7.575C10.5891 7.65469 10.5891 7.66406 10.5234 7.67812Z" fill="#1C2A45"/>
    <path d="M12.9938 6.15937C12.6234 6.29062 12.3797 6.70312 12.4453 7.08749C12.4969 7.38281 12.7172 7.58906 13.1906 7.77656C13.6641 7.96874 13.7531 8.03906 13.6172 8.14218C13.4859 8.24062 13.2047 8.18906 12.9984 8.03437C12.6703 7.78593 12.3281 7.91249 12.3281 8.28281C12.3281 8.69999 13.2094 9.08437 13.7625 8.90624C14.1609 8.77968 14.4375 8.43749 14.4375 8.06718C14.4375 7.59843 14.1891 7.34062 13.4766 7.07343C13.3313 7.01718 13.2234 6.95156 13.2328 6.92343C13.2609 6.82968 13.4859 6.83437 13.6828 6.93281C13.9266 7.05937 14.1609 7.05937 14.2734 6.93749C14.4 6.79687 14.3859 6.54374 14.25 6.39843C14.0109 6.14531 13.3688 6.01874 12.9938 6.15937Z" fill="#1C2A45"/>
    <path d="M15.1828 6.18282L15.0703 6.27189V7.52345V8.77501L15.1828 8.86407C15.3234 8.98126 15.5203 8.97657 15.675 8.8547C15.7781 8.77501 15.7969 8.72345 15.7969 8.52189V8.28282L16.1438 8.61564C16.5281 8.99064 16.6641 9.03282 16.8938 8.8547C16.9875 8.78439 17.0156 8.71876 17.0156 8.58751C17.0156 8.42814 16.9734 8.3672 16.5422 7.94532L16.0734 7.47657L16.5047 7.07345C16.8984 6.70314 16.9406 6.65157 16.9406 6.49689C16.9406 6.27189 16.7953 6.12189 16.5797 6.12189C16.4531 6.12189 16.3594 6.17345 16.1203 6.38907L15.8203 6.65626L15.8063 6.47814C15.7781 6.13595 15.4359 5.97657 15.1828 6.18282Z" fill="#1C2A45"/>
    <path d="M7.88437 9.75469C7.62187 9.80625 7.40625 9.94219 7.18125 10.1953C6.96562 10.4391 6.89062 10.6641 6.89062 11.0719C6.89062 11.7328 7.37812 12.2531 8.05781 12.3141C8.60625 12.3656 9.06562 12.1125 9.32344 11.6203C9.46875 11.3391 9.47812 11.2969 9.45937 10.9688C9.43594 10.5703 9.33281 10.3266 9.08437 10.0922C8.79375 9.81094 8.29687 9.67031 7.88437 9.75469ZM8.35781 10.5188C8.56875 10.6078 8.67656 10.7438 8.70469 10.9594C8.7375 11.1938 8.62031 11.4047 8.40937 11.5078C8.22187 11.5969 8.09531 11.5969 7.92656 11.5125C7.51875 11.2969 7.55156 10.7109 7.9875 10.5188C8.17031 10.4391 8.175 10.4391 8.35781 10.5188Z" fill="#1C2A45"/>
    <path d="M10.5281 9.98906C10.4344 10.0641 10.4062 10.125 10.4062 10.2656C10.4062 10.4062 10.4344 10.4672 10.5281 10.5422C10.65 10.6406 10.6875 10.6406 13.7766 10.6406C16.8609 10.6406 16.9078 10.6406 17.0062 10.5469C17.1609 10.4016 17.1469 10.1156 16.9875 9.98906C16.8656 9.89062 16.8281 9.89062 13.7578 9.89062C10.6875 9.89062 10.65 9.89062 10.5281 9.98906Z" fill="#1C2A45"/>
    <path d="M10.613 11.4563C10.388 11.5594 10.3271 11.8734 10.5005 12.0469C10.5896 12.1359 10.6552 12.1406 12.9052 12.1406C15.1787 12.1406 15.2209 12.1406 15.3052 12.0469C15.4271 11.9109 15.4224 11.6484 15.2912 11.5172L15.1834 11.4141L12.9709 11.4C11.1521 11.3906 10.7302 11.4 10.613 11.4563Z" fill="#1C2A45"/>
    <path d="M7.64062 13.8281C7.15781 14.0531 6.89062 14.4797 6.89062 15.0234C6.89531 15.75 7.35469 16.2516 8.06719 16.3031C8.48438 16.3312 8.8125 16.2234 9.06563 15.9656C9.32344 15.7125 9.43594 15.4641 9.45938 15.1078C9.49688 14.5875 9.26719 14.1469 8.82656 13.8891C8.52656 13.7156 7.95 13.6828 7.64062 13.8281ZM8.4375 14.5547C8.5125 14.5969 8.60625 14.6906 8.64844 14.7656C8.84531 15.15 8.58281 15.5625 8.12813 15.5625C7.99688 15.5625 7.92188 15.525 7.8 15.4031C7.66406 15.2672 7.64062 15.2109 7.64062 15.0234C7.64062 14.8359 7.66406 14.7797 7.8 14.6437C7.98281 14.4609 8.20312 14.4328 8.4375 14.5547Z" fill="#1C2A45"/>
    <path d="M10.6075 13.9219C10.3871 14.0109 10.3356 14.3531 10.5137 14.5219L10.6215 14.625H13.7715C16.8606 14.625 16.9215 14.625 17.0153 14.5312C17.1465 14.4 17.1418 14.1094 17.0106 13.9875C16.9168 13.9031 16.7856 13.8984 13.809 13.8891C12.0793 13.8844 10.6637 13.8984 10.6075 13.9219Z" fill="#1C2A45"/>
    <path d="M10.5002 15.5156C10.3783 15.6375 10.3783 15.8906 10.4955 16.0359L10.5846 16.1484L12.858 16.1625L15.1315 16.1766L15.2627 16.0641C15.4315 15.9188 15.4408 15.6328 15.2815 15.5063C15.183 15.4266 15.0143 15.4219 12.8861 15.4219C10.6549 15.4219 10.5893 15.4266 10.5002 15.5156Z" fill="#1C2A45"/>
    <path d="M7.70625 17.7937C7.22344 17.9719 6.89062 18.4547 6.89062 18.975C6.89062 19.4344 6.96563 19.6266 7.26562 19.9266C7.45781 20.1187 7.57969 20.2031 7.75781 20.25C8.69531 20.5125 9.53438 19.8562 9.45938 18.9187C9.42188 18.4453 9.16406 18.0656 8.74688 17.85C8.49844 17.7234 7.97344 17.6906 7.70625 17.7937ZM8.4375 18.5437C8.71875 18.7125 8.79375 19.0453 8.61094 19.3172C8.32031 19.7484 7.64062 19.5469 7.64062 19.0266C7.64062 18.7875 7.70156 18.675 7.88906 18.5625C8.07188 18.45 8.26406 18.4453 8.4375 18.5437Z" fill="#1C2A45"/>
    <path d="M10.5 18C10.3782 18.1219 10.3735 18.389 10.4953 18.5109C10.5469 18.5625 10.6594 18.6187 10.7438 18.6328C10.8282 18.6469 12.2532 18.6562 13.9032 18.6469C16.786 18.6328 16.9172 18.6281 17.011 18.5437C17.1422 18.4219 17.1469 18.1312 17.0157 18C16.9219 17.9062 16.861 17.9062 13.7578 17.9062C10.6547 17.9062 10.5938 17.9062 10.5 18Z" fill="#1C2A45"/>
    <path d="M10.5281 19.5047C10.4344 19.5797 10.4062 19.6406 10.4062 19.7812C10.4062 19.9219 10.4344 19.9828 10.5281 20.0578C10.65 20.1562 10.6969 20.1562 12.9563 20.1562C15.2109 20.1562 15.2672 20.1562 15.3656 20.0625C15.4219 20.0109 15.4781 19.9172 15.4969 19.8562C15.5297 19.725 15.4125 19.4766 15.3047 19.4344C15.2625 19.4203 14.1984 19.4062 12.9422 19.4062C10.6969 19.4062 10.65 19.4062 10.5281 19.5047Z" fill="#1C2A45"/>
</svg>
