<svg width="22" height="22" viewBox="0 0 22 22" fill="none" xmlns="http://www.w3.org/2000/svg">
    <path d="M10.2051 0.498438C8.8043 0.644531 7.73008 0.94961 6.59571 1.52539C3.70821 2.98633 1.80469 5.6418 1.30626 8.91602C1.25899 9.22109 1.23321 9.83555 1.21602 11.0215L1.19454 12.6973L1.03126 12.9121C0.794928 13.2301 0.666022 13.475 0.528522 13.8574C0.4211 14.1711 0.412506 14.2527 0.412506 14.8027C0.412506 15.3312 0.425397 15.443 0.524225 15.7352C0.6961 16.2551 0.919537 16.6117 1.31055 16.9984C1.59415 17.282 1.74024 17.3852 2.0668 17.5484C2.31172 17.6687 2.61251 17.7762 2.82735 17.8234C3.17969 17.9008 3.18829 17.9008 3.26563 18.077C3.37735 18.3262 3.63087 18.5926 3.88438 18.7258C4.07774 18.8289 4.15079 18.8418 4.51172 18.8418C4.85547 18.8418 4.95001 18.8246 5.10469 18.743C5.38829 18.5926 5.61602 18.3648 5.74493 18.0984L5.86524 17.8535V14.8027V11.752L5.76641 11.5543C5.61172 11.2449 5.39258 11.0172 5.12188 10.884C4.91133 10.7809 4.8254 10.7637 4.51172 10.7637C4.19805 10.7637 4.11212 10.7809 3.90157 10.884C3.76407 10.9527 3.5793 11.0902 3.48047 11.202L3.3086 11.3996V10.8238C3.3129 10.0375 3.37735 9.26406 3.48477 8.72266C3.95313 6.40664 5.52579 4.38711 7.66993 3.35156C9.03633 2.69414 10.4973 2.44922 11.9582 2.64258C15.2453 3.07227 17.8578 5.51719 18.5238 8.79141C18.6012 9.17383 18.6227 9.44883 18.6399 10.3039L18.657 11.3523L18.4551 11.1504C18.1629 10.8539 17.9352 10.7637 17.4883 10.7637C17.2047 10.7637 17.0758 10.7852 16.9254 10.8539C16.6418 10.9871 16.3926 11.2277 16.2551 11.507L16.1348 11.752V14.8027C16.1348 17.8277 16.1348 17.8535 16.225 18.0512C16.3539 18.3262 16.6031 18.5883 16.8609 18.7258C17.0543 18.8289 17.1273 18.8418 17.4883 18.8418C17.832 18.8418 17.9266 18.8246 18.0813 18.743C18.3649 18.5926 18.5926 18.3648 18.7215 18.0984C18.859 17.8105 18.8848 17.8578 18.8547 18.3563C18.8203 18.9621 18.4508 19.4949 17.875 19.7785L17.5957 19.916L15.4387 19.9289C13.6984 19.9375 13.2774 19.9289 13.2774 19.8859C13.2774 19.7355 13.1742 19.4906 13.0496 19.3488C12.8133 19.0824 12.7875 19.0781 11.232 19.0781H9.82696L9.64219 19.1855C9.54337 19.2457 9.41446 19.366 9.3586 19.452C9.27266 19.598 9.25977 19.6754 9.24258 20.191C9.2254 20.8484 9.26407 21.0246 9.46602 21.2566C9.69805 21.523 9.73243 21.5273 11.2363 21.5273C12.3621 21.5273 12.6199 21.5145 12.7531 21.4629C13.0453 21.3383 13.2 21.1363 13.2559 20.8098L13.2859 20.625H15.4C17.7461 20.625 17.7719 20.6207 18.309 20.3414C18.859 20.0535 19.3231 19.4562 19.4863 18.8375C19.5207 18.6957 19.5508 18.3992 19.5508 18.1543L19.5551 17.7246L19.8859 17.5656C20.6723 17.1918 21.291 16.4484 21.5145 15.5977C21.6176 15.2109 21.6176 14.3859 21.5102 14.0078C21.4113 13.6555 21.1836 13.1914 20.9731 12.925L20.8098 12.723L20.784 11.0344C20.7582 9.23828 20.7281 8.90312 20.509 7.9707C19.8516 5.15625 17.9309 2.75859 15.3184 1.48242C14.3344 1.00117 13.5008 0.739061 12.4609 0.580078C12.027 0.515625 10.566 0.459764 10.2051 0.498438ZM12.418 1.26758C13.2988 1.41797 14.0981 1.66289 14.8543 2.01953C17.802 3.40742 19.7828 6.26055 20.0621 9.51758C20.1008 9.95586 20.1309 12.1172 20.1008 12.1172C20.0922 12.1172 19.9246 12.0484 19.7227 11.9668L19.3574 11.8207L19.3316 10.5188C19.3016 8.9375 19.2113 8.35742 18.8332 7.34766C17.0285 2.51797 11.3524 0.451172 6.86212 2.99063C4.64063 4.24961 3.10665 6.50547 2.73282 9.0707C2.68555 9.39297 2.66407 9.86562 2.66407 10.6734C2.66407 11.7262 2.65977 11.8207 2.59102 11.8465C2.51368 11.8723 2.05821 12.0527 1.9379 12.1043C1.85196 12.143 1.89922 9.56484 1.99805 8.9375C2.31172 6.95664 3.17969 5.24219 4.57618 3.8457C6.04571 2.36758 7.92344 1.45664 10.0117 1.20312C10.4887 1.14726 11.9367 1.18594 12.418 1.26758ZM4.89415 11.5543C4.96719 11.6102 5.06602 11.7262 5.11329 11.8207C5.19922 11.984 5.19922 12.0613 5.19063 14.8629C5.17774 17.7074 5.17774 17.7418 5.08751 17.8621C4.93712 18.0598 4.73516 18.1758 4.52462 18.1758C4.28829 18.1758 4.12071 18.0898 3.96602 17.8879L3.84571 17.7332V14.8027V11.8723L3.97032 11.7133C4.03907 11.623 4.15508 11.5242 4.22813 11.4898C4.4129 11.4039 4.72657 11.4383 4.89415 11.5543ZM17.7633 11.4898C17.8406 11.5242 17.9609 11.623 18.0297 11.7133L18.1543 11.8723V14.8027V17.7332L18.034 17.8879C17.7289 18.2875 17.2176 18.2746 16.9125 17.8621C16.8223 17.7418 16.8223 17.716 16.8223 14.807V11.8723L16.9383 11.7219C17.1445 11.4512 17.4625 11.3652 17.7633 11.4898ZM3.13672 14.8027C3.13672 16.1777 3.11954 17.1875 3.09805 17.1875C2.97344 17.1875 2.47501 16.9941 2.25587 16.8652C1.77891 16.5773 1.43087 16.1605 1.21602 15.6105C1.1129 15.3527 1.10001 15.2582 1.10001 14.8027C1.10001 14.3473 1.1129 14.2527 1.21602 13.9949C1.44376 13.4062 1.85626 12.9465 2.38047 12.6801C2.59962 12.5641 2.96055 12.4395 3.10665 12.4223C3.12383 12.418 3.13672 13.4922 3.13672 14.8027ZM19.293 12.534C20.0449 12.7789 20.6723 13.475 20.8613 14.2699C21.1621 15.5547 20.3113 16.8824 19.0051 17.166L18.8633 17.1961V14.807V12.418L18.9836 12.4437C19.0481 12.4609 19.1856 12.4996 19.293 12.534ZM12.5383 19.8172C12.607 19.8859 12.607 20.7195 12.5383 20.7883C12.4652 20.8613 10.0504 20.8613 9.97735 20.7883C9.92149 20.7324 9.9043 19.9633 9.95157 19.8344C9.97305 19.7742 10.1277 19.7656 11.232 19.7656C12.1516 19.7656 12.4996 19.7785 12.5383 19.8172Z" fill="black"/>
    <path d="M7.05547 7.22315C6.83633 7.33487 6.64727 7.54971 6.57852 7.77315C6.54414 7.88916 6.53125 8.68838 6.53125 10.4372C6.53125 13.1657 6.52266 13.0755 6.78477 13.372C7.03399 13.6599 7.14571 13.6814 8.41328 13.6985L9.54336 13.7157L10.059 14.3302C10.3855 14.7169 10.6305 14.9704 10.7164 15.0048C10.8926 15.0778 11.1633 15.0692 11.3223 14.9833C11.3953 14.9489 11.6832 14.6353 11.9668 14.2915L12.4824 13.6685H13.6168C14.6781 13.6642 14.7684 13.6599 14.9402 13.5739C15.1594 13.4665 15.3527 13.2474 15.4215 13.0239C15.4902 12.7919 15.4902 8.00518 15.4215 7.77315C15.3527 7.54971 15.1594 7.33057 14.9402 7.22315C14.7555 7.13291 14.7211 7.13291 10.9957 7.13291C7.25742 7.13291 7.24024 7.13291 7.05547 7.22315ZM14.6953 7.90635C14.7813 7.99229 14.7813 8.04815 14.7813 10.3942C14.7813 12.6931 14.777 12.8005 14.6996 12.895L14.618 12.9981L13.3633 13.0196L12.1086 13.0411L11.9453 13.2345C11.8508 13.3419 11.6059 13.6341 11.3996 13.8876C11.1934 14.1411 11.0129 14.3474 11 14.3474C10.9871 14.3474 10.7293 14.0466 10.4285 13.6856L9.87852 13.0239L8.63242 13.011L7.38203 12.9981L7.30039 12.895C7.22305 12.8005 7.21875 12.6931 7.21875 10.3942C7.21875 8.04815 7.21875 7.99229 7.30469 7.90635C7.39063 7.82041 7.44649 7.82041 11 7.82041C14.5535 7.82041 14.6094 7.82041 14.6953 7.90635Z" fill="black"/>
    <path d="M8.20273 8.8043C8.12539 8.86445 8.09961 8.92891 8.09961 9.06641C8.09961 9.20391 8.12539 9.26836 8.20273 9.32852C8.29727 9.40586 8.41758 9.41016 11 9.41016C13.5824 9.41016 13.7027 9.40586 13.7973 9.32852C13.9391 9.2125 13.9391 8.92031 13.7973 8.8043C13.7027 8.72695 13.5824 8.72266 11 8.72266C8.41758 8.72266 8.29727 8.72695 8.20273 8.8043Z" fill="black"/>
    <path d="M8.26719 10.1492C8.06524 10.2438 8.02657 10.5188 8.18555 10.6777L8.28868 10.7852H11H13.7113L13.8145 10.6777C13.982 10.5145 13.9305 10.2395 13.7199 10.1449C13.5824 10.0805 8.4004 10.0848 8.26719 10.1492Z" fill="black"/>
    <path d="M8.16836 11.6273C8.1168 11.6918 8.07812 11.7863 8.07812 11.8379C8.07812 11.8895 8.1168 11.984 8.16836 12.0484L8.2543 12.1602H9.60352C10.8324 12.1602 10.957 12.1516 11.043 12.0828C11.1633 11.9883 11.1719 11.7219 11.0602 11.5973C10.9914 11.5199 10.9184 11.5156 9.6207 11.5156H8.2543L8.16836 11.6273Z" fill="black"/>
</svg>
