<svg width="100" height="100" viewBox="0 0 100 100" fill="none" xmlns="http://www.w3.org/2000/svg">
    <path d="M62.774 88.2377C55.6666 88.2377 48.4233 86.0665 40.8043 81.674C25.4508 72.8222 16.518 73.2812 8.63672 78.1018C17.6352 91.3199 32.8027 100 49.9983 100C68.7261 100 85.0502 89.7031 93.617 74.4604C85.415 81.7503 77.4169 86.076 69.3568 87.6129C67.1701 88.0291 64.9798 88.2377 62.774 88.2377Z" fill="#2C6B8A"/>
    <path d="M46.0139 71.0517C56.0354 76.5888 68.1184 76.4291 78.3366 70.6236C90.0738 63.955 97.4185 51.0803 98.048 36.1214C97.5234 34.296 96.8962 32.5147 96.1737 30.7822C95.8804 34.798 95.1197 38.679 93.8951 42.3883C91.9564 48.264 88.9554 53.4578 84.9754 57.8241C78.5202 64.9077 70.1739 68.9699 62.0757 68.9699C53.5661 68.9699 47.0298 65.7053 40.7093 62.5469C34.3137 59.3514 28.2722 56.3337 20.1811 56.3337C11.7848 56.3337 7.07274 58.152 1.44141 61.9698C1.81937 63.5103 2.26888 65.0233 2.78754 66.5054C8.36879 63.6104 13.4278 61.9078 19.0031 61.8708C26.1999 61.8267 34.2803 64.5702 46.0139 71.0517Z" fill="url(#paint0_linear_537_350)"/>
    <path d="M20.1812 53.1346C29.0271 53.1346 35.6933 56.4648 42.139 59.6852C48.4035 62.8151 54.3197 65.7708 62.0746 65.7708C69.2762 65.7708 76.7592 62.0889 82.6099 55.6683C89.9511 47.613 93.6162 36.6436 93.0547 24.563C84.3507 9.85931 68.3259 0 50 0C22.3858 0 0 22.3858 0 50C0 52.9343 0.252771 55.809 0.738046 58.6038C2.7173 57.3268 4.61905 56.2883 6.646 55.4596C10.5783 53.8524 14.7538 53.1346 20.1812 53.1346Z" fill="url(#paint1_linear_537_350)"/>
    <path d="M99.8634 46.2456C98.7879 50.6632 97.1079 54.8041 94.8378 58.635C91.1535 64.8458 85.9955 69.9537 79.9195 73.4067C74.529 76.4698 68.5018 78.1652 62.4925 78.3083C62.2171 78.3143 61.9393 78.3179 61.6638 78.3179C55.6963 78.3179 49.7692 76.781 44.4694 73.8526C25.2957 63.26 16.7897 62.7891 3.95312 69.5138C4.81875 71.5538 5.81672 73.5247 6.93393 75.4146C11.1285 72.863 15.2504 71.6051 19.6309 71.5049C26.1589 71.3595 33.3975 73.7083 42.4067 78.9021C61.5351 89.9311 78.5089 86.1335 97.201 66.5413C99.0145 61.3642 100.002 55.7985 100.002 50.0002C100.002 48.7376 99.9552 47.4856 99.8634 46.2456Z" fill="url(#paint2_linear_537_350)"/>
    <path d="M42.4063 78.902C33.3972 73.7083 26.1586 71.3594 19.6306 71.5049C15.25 71.605 11.127 72.8629 6.93359 75.4145C7.47491 76.329 8.04364 77.2256 8.64219 78.102C16.5234 73.2814 25.4551 72.8224 40.8098 81.6742C48.4275 86.0667 55.6721 88.2379 62.7795 88.2379C64.9841 88.2379 67.1756 88.0293 69.3611 87.6131C77.4212 86.0774 85.4193 81.7517 93.6213 74.4606C95.033 71.9472 96.2348 69.2991 97.2018 66.54C78.5086 86.1335 61.5347 89.931 42.4063 78.902Z" fill="white"/>
    <path d="M44.4651 73.8536C49.7638 76.7819 55.6908 78.3188 61.6596 78.3188C61.935 78.3188 62.2128 78.3152 62.4882 78.3093C68.4975 78.165 74.5247 76.4707 79.9152 73.4076C85.9913 69.9559 91.1492 64.848 94.8335 58.636C97.1049 54.8062 98.7837 50.6641 99.8591 46.2466C99.6004 42.759 98.984 39.374 98.0456 36.1226C97.4161 51.0814 90.0714 63.9561 78.3342 70.6248C68.116 76.4302 56.033 76.59 46.0116 71.0528C34.2779 64.5714 26.1988 61.8278 19.0007 61.8731C13.4254 61.9101 8.36641 63.6127 2.78516 66.5077C3.14166 67.5271 3.52916 68.5299 3.94767 69.5159C16.7854 62.7888 25.2914 63.2598 44.4651 73.8536Z" fill="white"/>
    <path d="M40.7096 62.5482C47.0301 65.7067 53.5653 68.9713 62.076 68.9713C70.1755 68.9713 78.5217 64.9078 84.9757 57.8255C88.9557 53.458 91.9568 48.2654 93.8955 42.3897C95.12 38.6803 95.8807 34.7993 96.174 30.7836C95.2762 28.6291 94.2329 26.5521 93.0561 24.5645C93.6177 36.6451 89.9525 47.6144 82.6114 55.6697C76.7619 62.0892 69.2777 65.7723 62.076 65.7723C54.3212 65.7723 48.4037 62.8165 42.1404 59.6867C35.6947 56.4662 29.0285 53.136 20.1826 53.136C14.7552 53.136 10.5797 53.8526 6.64623 55.4611C4.61929 56.2897 2.71753 57.3283 0.738281 58.6052C0.933822 59.7415 1.1699 60.8647 1.44294 61.9723C7.07427 58.1545 11.7863 56.3362 20.1826 56.3362C28.2725 56.3351 34.314 59.3528 40.7096 62.5482Z" fill="white"/>
    <path d="M82.9734 23.4458C82.6694 23.0917 82.2258 22.889 81.7596 22.889C75.8052 22.889 70.3515 24.1898 65.5488 26.7569C61.4353 28.9543 57.8989 32.0639 55.3223 35.7482C53.541 38.295 52.2688 41.0516 51.6416 43.7212C51.6273 43.7844 51.6142 43.8452 51.6011 43.9084V31.234C52.8315 30.9646 54.2409 30.3791 55.4761 29.3418C57.9597 27.2564 59.2188 23.974 59.2188 19.5838C59.2188 9.95108 51.5617 4.13375 50.9644 3.69497C50.9608 3.69259 50.9572 3.6902 50.9536 3.68663C50.9477 3.68186 50.9417 3.67828 50.9381 3.6747C50.9274 3.66755 50.9167 3.66159 50.9071 3.65443C50.8761 3.63297 50.8451 3.61151 50.8129 3.59363C50.7939 3.5829 50.7748 3.57336 50.7557 3.56263C50.7295 3.54832 50.7032 3.53401 50.6758 3.52209C50.6508 3.51016 50.6245 3.50062 50.5983 3.48989C50.5769 3.48155 50.5554 3.47201 50.5339 3.46486C50.5041 3.45412 50.4743 3.44578 50.4433 3.43624C50.4242 3.43028 50.4064 3.42551 50.3873 3.42074C50.3563 3.41239 50.3241 3.40643 50.2919 3.40047C50.2728 3.39689 50.2537 3.39332 50.2347 3.38974C50.2049 3.38497 50.1739 3.38258 50.1429 3.37901C50.1214 3.37662 50.0999 3.37543 50.0785 3.37424C50.051 3.37305 50.0236 3.37305 49.9962 3.37305C49.9712 3.37305 49.9461 3.37305 49.9211 3.37424C49.8972 3.37543 49.8734 3.37782 49.8495 3.3802C49.8209 3.38259 49.7923 3.38616 49.7649 3.38974C49.7434 3.39332 49.7232 3.39689 49.7017 3.40047C49.6719 3.40643 49.6421 3.41239 49.6123 3.41955C49.5908 3.42432 49.5705 3.43147 49.5503 3.43743C49.5217 3.44578 49.493 3.45412 49.4656 3.46366C49.4418 3.47201 49.4191 3.48155 49.3965 3.49109C49.3726 3.50063 49.3476 3.51016 49.3249 3.52089C49.2963 3.53401 49.2689 3.54832 49.2415 3.56382C49.2236 3.57336 49.2057 3.5829 49.1878 3.59243C49.1544 3.61151 49.1234 3.63297 49.0912 3.65443C49.0817 3.66159 49.071 3.66755 49.0614 3.6747C49.0578 3.67709 49.0519 3.68186 49.0459 3.68543C49.0423 3.68782 49.0388 3.6914 49.0352 3.69378C48.4366 4.13375 40.7819 9.94989 40.7819 19.5827C40.7819 23.9728 42.041 27.2552 44.5246 29.3406C45.7611 30.3779 47.1692 30.9634 48.3997 31.2328V43.9072C48.3854 43.8452 48.3734 43.7832 48.3591 43.72C47.7332 41.0516 46.4598 38.2938 44.6784 35.747C42.1018 32.0627 38.5654 28.9531 34.4519 26.7557C29.6492 24.1898 24.1956 22.8878 18.2411 22.8878C17.7749 22.8878 17.3314 23.0917 17.0273 23.4446C16.7233 23.7987 16.5886 24.2673 16.6589 24.7287C18.3341 35.7172 22.5204 43.5877 29.102 48.1209C34.1228 51.5786 39.406 52.2976 42.9305 52.2976C44.2194 52.2976 45.2722 52.201 45.9912 52.108C47.7129 54.526 48.3997 56.2287 48.3997 57.1587V65.0363C48.3997 65.9198 49.1163 66.6364 49.9998 66.6364C50.8833 66.6364 51.5999 65.9198 51.5999 65.0363V57.1587C51.5999 56.2287 52.2866 54.526 54.0084 52.108C54.7285 52.201 55.7801 52.2976 57.069 52.2976C60.5935 52.2976 65.8779 51.5786 70.8976 48.1209C77.4792 43.5877 81.6654 35.7183 83.3406 24.7287C83.4122 24.2685 83.2774 23.7987 82.9734 23.4458ZM43.9833 19.5827C43.9833 16.1941 45.1351 12.939 47.4077 9.90816C48.3603 8.63715 49.3225 7.67137 50.0022 7.05374C51.9003 8.77665 56.0186 13.2455 56.0186 19.5827C56.0186 22.9832 55.1434 25.4405 53.4182 26.8892C52.8017 27.4067 52.1603 27.7226 51.6011 27.9158V16.8999C51.6011 16.0164 50.8845 15.2998 50.001 15.2998C49.1175 15.2998 48.4009 16.0164 48.4009 16.8999V27.9158C47.8417 27.7226 47.2002 27.4067 46.5838 26.8892C44.8585 25.4405 43.9833 22.982 43.9833 19.5827ZM41.3161 49.033C37.416 48.7564 33.9046 47.5533 30.8797 45.4596C25.4475 41.699 21.8395 35.2033 20.1441 26.1368C33.1237 26.8105 39.7506 34.2828 42.0577 37.5819C44.1097 40.5162 45.3485 43.7498 45.5667 46.4755C45.1423 45.9962 44.7202 45.5347 44.3064 45.0936C40.3289 40.8525 35.2734 36.5399 31.1134 33.8404C30.3718 33.3587 29.381 33.5698 28.9005 34.3114C28.4188 35.053 28.6298 36.0438 29.3714 36.5244C33.3299 39.0938 38.1588 43.2169 41.9731 47.2827C42.5597 47.9086 43.0998 48.5072 43.5946 49.0807C42.9233 49.0998 42.1555 49.0926 41.3161 49.033ZM69.1222 45.4596C66.0973 47.5533 62.5859 48.7564 58.6858 49.033C57.8464 49.0926 57.0786 49.0998 56.4085 49.0807C56.9045 48.5072 57.4434 47.9074 58.0301 47.2827C61.8443 43.2169 66.672 39.0938 70.6317 36.5244C71.3733 36.0427 71.5832 35.0518 71.1027 34.3114C70.621 33.5698 69.6301 33.3599 68.8897 33.8404C64.7297 36.541 59.6743 40.8525 55.6967 45.0936C55.2841 45.5335 54.8609 45.9962 54.4376 46.4743C54.6558 43.7486 55.8946 40.5139 57.9466 37.5807C60.2537 34.2828 66.8795 26.8105 79.8591 26.1368C78.1612 35.2033 74.5544 41.6978 69.1222 45.4596Z" fill="white"/>
    <defs>
        <linearGradient id="paint0_linear_537_350" x1="49.7442" y1="0.876195" x2="49.7442" y2="82.8519" gradientUnits="userSpaceOnUse">
            <stop stop-color="#9CE9DB"/>
            <stop offset="1" stop-color="#50A6DF"/>
        </linearGradient>
        <linearGradient id="paint1_linear_537_350" x1="46.5559" y1="0.87613" x2="46.5559" y2="82.8518" gradientUnits="userSpaceOnUse">
            <stop stop-color="#9CE9DB"/>
            <stop offset="1" stop-color="#50A6DF"/>
        </linearGradient>
        <linearGradient id="paint2_linear_537_350" x1="51.9773" y1="0.876348" x2="51.9773" y2="82.852" gradientUnits="userSpaceOnUse">
            <stop stop-color="#9CE9DB"/>
            <stop offset="1" stop-color="#50A6DF"/>
        </linearGradient>
    </defs>
</svg>
