<svg width="174" height="174" viewBox="0 0 174 174" fill="none" xmlns="http://www.w3.org/2000/svg">
    <path d="M88.192 23.4317C87.5218 24.0026 87.5218 24.0522 87.497 27.1053C87.497 29.3889 87.5963 30.3073 87.8445 30.6052C88.2665 31.1264 90.1777 31.1761 90.5749 30.6796C91.1706 29.9846 91.0465 23.8289 90.4508 23.2331C89.9047 22.6622 88.9863 22.7367 88.192 23.4317Z" fill="#ED840F"/>
    <path d="M75.4578 26.9563C74.2415 27.9988 74.4401 28.9173 76.401 31.2505C79.1562 34.5021 79.6775 34.7752 81.0179 33.7327C81.837 33.0873 81.8618 32.1441 81.1171 31.1264C79.8761 29.4633 77.7662 27.2542 77.0216 26.8074L76.2025 26.3358L75.4578 26.9563Z" fill="#ED840F"/>
    <path d="M101.198 26.8321C100.627 27.1797 99.2374 28.6938 97.9964 30.332C97.3013 31.2504 97.0531 31.8213 97.0531 32.4915C97.0531 33.6581 97.4006 34.0056 98.5672 34.0056C99.3119 34.0056 99.6346 33.8319 100.305 33.0624C102.266 30.9029 103.507 29.0661 103.507 28.3463C103.507 27.2045 102.117 26.3109 101.198 26.8321Z" fill="#ED840F"/>
    <path d="M87.6209 34.1547C85.387 34.5518 82.7062 35.917 81.0928 37.456C78.6106 39.7644 77.7667 41.9239 77.444 46.5655C77.1958 50.3136 76.6746 51.9767 75.1604 53.8879C74.6144 54.5829 73.6463 55.5013 73.0258 55.9233C70.5188 57.636 70.1961 58.4551 71.462 59.8699L72.1818 60.6891L88.5393 60.7635C97.5248 60.8132 105.244 60.7635 105.716 60.6891C106.858 60.4657 107.726 59.5473 107.726 58.5048C107.726 57.6112 107.329 57.1644 105.567 56.0226C103.978 55.0297 102.762 53.6397 101.968 51.9518C101.347 50.6611 101.198 49.9413 101 47.2357C100.652 42.6685 99.9573 40.5587 98.0957 38.2503C97.078 36.9844 94.844 35.4702 92.9824 34.7752C91.6668 34.2788 88.7627 33.9561 87.6209 34.1547Z" fill="#ED840F"/>
    <path d="M68.4336 35.0979C67.689 35.7929 67.6145 36.1653 68.0365 37.0837C68.3592 37.7539 69.1783 38.3744 71.7597 39.7892C74.093 41.1048 75.5078 40.9807 75.8305 39.4666C76.0787 38.3248 75.5574 37.7539 72.703 36.1901C69.3768 34.3781 69.2279 34.3533 68.4336 35.0979Z" fill="#ED840F"/>
    <path d="M107.602 35.1474C105.021 36.4878 103.01 37.8778 102.762 38.4984C102.39 39.3671 102.613 40.0621 103.383 40.5586C103.929 40.9061 104.102 40.9309 104.822 40.633C106.212 40.0373 110.134 37.5055 110.308 37.0835C110.655 36.19 110.457 35.5198 109.712 35.1226C108.819 34.651 108.546 34.6758 107.602 35.1474Z" fill="#ED840F"/>
    <path d="M65.6538 45.4236C65.0829 46.0442 65.0581 47.3101 65.629 47.8562C65.9765 48.2037 66.6467 48.303 69.5012 48.3526C72.9514 48.4271 72.9514 48.4271 73.6216 47.7817C74.1428 47.2604 74.2421 46.9874 74.118 46.342C73.8698 45.0513 73.4975 44.9272 69.6253 44.9272C66.3985 44.9272 66.0758 44.9769 65.6538 45.4236Z" fill="#ED840F"/>
    <path d="M104.748 45.4236C104.251 45.9201 104.102 47.037 104.45 47.5583C104.872 48.2285 105.84 48.4022 108.769 48.4022C112.418 48.4022 113.038 48.1788 113.137 46.8633C113.187 46.1435 113.088 45.8704 112.542 45.4485C111.946 44.9768 111.574 44.9272 108.57 44.9272C105.567 44.9272 105.194 44.9768 104.748 45.4236Z" fill="#ED840F"/>
    <path d="M104.773 69.3269C99.5353 79.8762 99.3119 80.5463 100.33 83.8973C100.479 84.3689 104.847 93.3047 110.06 103.755C118.449 120.559 125.102 134.211 125.102 134.608C125.102 134.682 115.123 134.757 102.961 134.757C77.5681 134.757 76.5504 134.831 73.9193 136.494C71.9584 137.736 70.8166 140.242 69.3521 146.448C68.9053 148.434 68.5082 150.196 68.5082 150.345C68.5082 150.593 76.2277 150.668 106.336 150.668H144.19L144.314 149.625C144.909 145.207 144.959 143.097 144.587 138.803C143.867 130.537 143.594 129.395 140.938 123.761C131.208 103.01 109.936 60.3167 109.315 60.3167C109.29 60.3167 107.23 64.3626 104.773 69.3269Z" fill="white"/>
    <path d="M64.5611 71.536C56.6678 87.0744 51.3808 98.0704 36.8353 129.197C30.2079 143.42 29.1902 145.778 29.0909 146.994C28.9916 148.31 29.0413 148.458 29.7115 149.153C30.1334 149.551 31.0518 150.072 31.7965 150.295C33.6333 150.841 39.665 151.09 41.75 150.692C46.3172 149.799 49.2958 146.919 50.9092 141.856C51.207 140.888 51.7035 139.672 52.0262 139.125C52.324 138.579 52.8949 137.189 53.2424 136.023C55.3026 129.519 59.1996 124.952 64.3874 122.991C67.7631 121.725 69.2028 121.527 74.5891 121.626C85.0638 121.8 85.9326 121.775 87.1737 121.304C88.5389 120.782 89.4821 119.765 89.8544 118.449C90.4253 116.339 89.8792 108.322 88.9857 105.666L88.5637 104.499H79.1563C73.9934 104.499 69.7488 104.45 69.7488 104.4C69.7488 104.35 71.5608 100.627 73.7948 96.1095C78.4613 86.6773 79.4045 84.4681 79.6031 82.3335C79.7272 80.8938 79.6527 80.596 78.5854 78.0641C77.0961 74.5643 70.419 60.8379 70.1956 60.8379C70.0964 60.8131 67.5645 65.6533 64.5611 71.536Z" fill="white"/>
    <path d="M84.1707 64.0151C83.6743 64.3378 83.9721 65.8768 84.7664 67.0682C86.2557 69.3021 90.1279 69.9475 92.3867 68.3589C93.7271 67.4157 94.5958 65.9512 94.5214 64.7846L94.4469 63.9158L89.4826 63.8662C86.7522 63.8166 84.3693 63.891 84.1707 64.0151Z" fill="#ED840F"/>
</svg>
