<svg width="14" height="22" viewBox="0 0 14 22" fill="none" xmlns="http://www.w3.org/2000/svg">
    <path d="M8.56836 0.0862045C8.47813 0.146362 7.26641 2.03269 4.49492 6.43269L0.554688 12.6932V12.9339C0.554688 13.2003 0.640625 13.3635 0.838281 13.4968C0.958594 13.5741 1.0918 13.5784 3.63984 13.5784C5.56055 13.5784 6.3125 13.5913 6.3125 13.6257C6.3125 13.6514 5.88711 15.3616 5.36719 17.4241C4.76992 19.7874 4.42188 21.2483 4.42188 21.3815C4.42188 21.6178 4.51641 21.7897 4.70547 21.9186C4.86875 22.026 5.24258 22.0303 5.41875 21.9272C5.56484 21.837 5.24688 22.3354 9.91758 14.9104L13.4453 9.3073V9.06667C13.4453 8.80027 13.3594 8.63699 13.1617 8.50378C13.0414 8.42644 12.9082 8.42214 10.3645 8.42214C8.43945 8.42214 7.6875 8.40925 7.6875 8.37488C7.6875 8.3491 8.11289 6.63894 8.63281 4.57644C9.23008 2.21316 9.57812 0.75222 9.57812 0.619019C9.57812 0.38269 9.48359 0.210815 9.29453 0.0819092C9.12266 -0.02981 8.74023 -0.02981 8.56836 0.0862045Z" fill="#111111"/>
</svg>
