<svg width="20" height="22" viewBox="0 0 20 22" fill="none" xmlns="http://www.w3.org/2000/svg">
    <path d="M9.35976 0.0815372C8.84414 0.274897 8.47031 0.614351 8.22539 1.11279C8.09218 1.38779 8.08788 1.41357 8.0664 2.12255L8.04492 2.84873L7.76562 2.94326C5.77617 3.61787 4.14765 5.3581 3.56757 7.43349C3.37421 8.12959 3.33984 8.49052 3.33984 9.81826C3.33554 11.8979 3.26249 12.7401 2.99609 13.7929C2.63515 15.228 1.90039 16.6589 0.963667 17.7675C0.301948 18.5452 0.332027 18.4979 0.332027 18.7687C0.332027 19.0437 0.413667 19.2069 0.61562 19.3401C0.735933 19.4175 0.873433 19.4218 3.77382 19.4218H6.81171L6.92343 19.7741C7.08242 20.2897 7.30156 20.6335 7.74413 21.0761C8.18671 21.5229 8.6164 21.7679 9.20078 21.914C9.66054 22.03 10.3394 22.03 10.7992 21.914C11.3836 21.7679 11.8133 21.5229 12.2559 21.0761C12.6984 20.6335 12.9176 20.2897 13.0766 19.7784L13.1883 19.4218H16.2262C19.1266 19.4218 19.2641 19.4175 19.3844 19.3401C19.5863 19.2069 19.668 19.0437 19.668 18.7687C19.668 18.4979 19.698 18.5495 19.032 17.7589C18.0566 16.6116 17.2789 15.0433 16.9437 13.5565C16.7375 12.6542 16.7031 12.203 16.6773 10.3769C16.6559 8.5292 16.6301 8.20263 16.4582 7.54521C16.1402 6.3206 15.5602 5.34091 14.6105 4.42138C13.923 3.75537 13.0852 3.23115 12.2559 2.94755L11.9551 2.84443L11.9336 2.11826C11.9121 1.40498 11.9078 1.39208 11.766 1.0956C11.5726 0.700289 11.2332 0.360834 10.8379 0.171772C10.5586 0.0342712 10.4984 0.0213814 10.0644 0.0127869C9.67773 -0.000102997 9.54882 0.0127869 9.35976 0.0815372ZM10.3094 1.40498C10.5328 1.53818 10.6102 1.72294 10.6359 2.17412L10.6574 2.57802H9.99999H9.34257L9.36406 2.17412C9.38984 1.72724 9.45859 1.56396 9.68203 1.41357C9.84101 1.31044 10.1375 1.30615 10.3094 1.40498ZM10.7906 3.95732C12.6941 4.21084 14.443 5.67177 15.066 7.54091C15.3066 8.26709 15.3324 8.5249 15.3711 10.6561C15.4098 12.9679 15.4613 13.3718 15.8738 14.7382C16.1832 15.7565 16.8363 17.08 17.4422 17.905L17.6098 18.1327H9.99999H2.39023L2.55781 17.9093C3.16367 17.08 3.81679 15.7565 4.12617 14.7382C4.53867 13.3718 4.59023 12.9679 4.6289 10.6561C4.65468 9.14795 4.68046 8.61513 4.73632 8.31435C5.11445 6.23896 6.66992 4.57177 8.70664 4.05615C9.35546 3.88857 10.0344 3.85849 10.7906 3.95732ZM11.6715 19.6796C11.4953 20.0104 11.1473 20.337 10.7863 20.5089C10.5113 20.6378 10.4684 20.6464 9.99999 20.6464C9.53593 20.6464 9.48867 20.6378 9.22656 20.5132C8.86132 20.3413 8.50468 20.0062 8.32851 19.6839L8.19101 19.4218H9.99999H11.809L11.6715 19.6796Z" fill="#111111"/>
    <path d="M3.33125 2.26856C3.04336 2.40176 2.18828 3.42442 1.70273 4.21934C0.847656 5.61582 0.332031 7.41191 0.332031 8.97168C0.332031 9.52598 0.370703 9.6377 0.615625 9.80098C0.783203 9.9127 1.15703 9.9127 1.3375 9.80098C1.58242 9.64629 1.62539 9.51738 1.66406 8.79121C1.77578 6.82754 2.54492 5.00137 3.84688 3.60488C4.19063 3.23965 4.28516 3.07207 4.28516 2.85723C4.28516 2.36738 3.78242 2.05801 3.33125 2.26856Z" fill="#111111"/>
    <path d="M16.05 2.28145C15.7578 2.43184 15.6332 2.84863 15.7836 3.14942C15.8266 3.22676 15.9898 3.42871 16.1531 3.60488C17.4551 5.00137 18.2156 6.80176 18.3316 8.77832C18.3789 9.51738 18.4176 9.65059 18.6625 9.80098C18.843 9.9127 19.2168 9.9127 19.3844 9.80098C19.6293 9.6377 19.668 9.52598 19.668 8.97168C19.668 7.41191 19.1523 5.61582 18.2973 4.21934C17.8117 3.42442 16.9566 2.40176 16.6687 2.26856C16.4625 2.16973 16.2477 2.17403 16.05 2.28145Z" fill="#111111"/>
</svg>
