<svg width="20" height="18" viewBox="0 0 20 18" fill="none" xmlns="http://www.w3.org/2000/svg">
    <path d="M7.83008 0.711338C5.86211 0.95626 4.41836 2.35274 4.0875 4.32501C3.9543 5.12423 4.07891 6.09962 4.40977 6.82579C4.74493 7.56485 5.40235 8.31251 6.09414 8.7379L6.43789 8.94845L4.59883 9.5586C3.58907 9.89376 2.60508 10.2418 2.41602 10.332C1.51797 10.766 0.839067 11.5652 0.499614 12.5879C0.405082 12.8715 0.400786 12.966 0.383598 14.2551C0.366411 15.8793 0.375004 15.9266 0.757426 16.3047C1.17852 16.7215 0.735942 16.6914 6.38633 16.6914C11.5984 16.6871 11.3879 16.6957 11.4953 16.4895C11.577 16.3391 11.5555 16.2188 11.4223 16.0856L11.2977 15.9609H6.425C0.985161 15.9609 1.35899 15.9824 1.16993 15.6602C1.09258 15.527 1.08399 15.4195 1.0711 14.7106C1.03672 12.9617 1.22579 12.3215 1.98633 11.5567C2.23985 11.3031 2.42032 11.1656 2.67383 11.0324C3.06055 10.8348 6.8461 9.5629 7.40039 9.44688C7.86446 9.34806 8.78399 9.34806 9.27813 9.44259C9.48008 9.48556 9.99571 9.63165 10.4125 9.77345C10.8336 9.91524 11.2246 10.0313 11.2805 10.0313C11.4051 10.0313 11.6328 9.81212 11.6328 9.69181C11.6328 9.54142 11.5383 9.39103 11.4008 9.33087C11.3277 9.29649 11.0441 9.19337 10.7691 9.10313L10.2664 8.93985L10.5199 8.78946C11.5383 8.16642 12.3246 7.10509 12.6082 5.96642C12.6941 5.60548 12.707 4.59142 12.6254 4.20899C12.3504 2.89845 11.5383 1.78985 10.4254 1.20548C9.57032 0.754307 8.74961 0.599619 7.83008 0.711338ZM9.19649 1.51915C9.87539 1.69532 10.3438 1.94024 10.7992 2.35704C11.2676 2.78243 11.5641 3.25509 11.7875 3.9297C11.8992 4.26915 11.9078 4.34649 11.9078 4.98243C11.9121 5.78595 11.8434 6.10392 11.5254 6.72267C11.0699 7.59923 10.2879 8.21798 9.28672 8.49298C8.78829 8.63048 7.87735 8.63048 7.40899 8.49298C6.39493 8.20079 5.56563 7.5047 5.11875 6.57228C4.86524 6.05235 4.79649 5.76017 4.77071 5.17149C4.72344 4.16603 5.03282 3.31954 5.70313 2.58477C6.60118 1.60509 7.9375 1.19688 9.19649 1.51915Z" fill="black"/>
    <path d="M14.834 8.78955C13.8715 8.89697 12.9391 9.36103 12.2645 10.0743C11.4609 10.9122 11.0699 11.8747 11.0699 13.0177C11.0699 14.1907 11.5168 15.3294 12.2731 16.0856C13.5406 17.3532 15.5816 17.6884 17.2531 16.9063C18.5164 16.3134 19.3629 15.1446 19.5863 13.6837C19.6637 13.1724 19.6164 12.3216 19.4789 11.8661C19.0707 10.4954 18.0438 9.42548 16.716 8.9872C16.4324 8.89267 16.0887 8.81533 15.8352 8.78955C15.3754 8.73798 15.2766 8.73798 14.834 8.78955ZM16.2949 9.62314C16.7805 9.75634 17.4035 10.0958 17.7602 10.431C18.2586 10.8993 18.5422 11.3548 18.7527 12.038C18.8559 12.3774 18.8688 12.4849 18.8688 13.0821C18.8731 13.7267 18.8688 13.761 18.7313 14.1563C18.525 14.7536 18.3016 15.1017 17.8246 15.5743C17.4895 15.9052 17.3391 16.0255 17.0254 16.1845C16.3723 16.5196 16.1016 16.5841 15.3496 16.5841C14.7953 16.5841 14.6621 16.5712 14.3828 16.4852C13.3602 16.163 12.5008 15.411 12.084 14.4786C11.9164 14.0919 11.8004 13.5591 11.8004 13.1337C11.7918 11.3677 12.9004 9.95829 14.5977 9.58017C14.9586 9.49853 15.9297 9.52431 16.2949 9.62314Z" fill="black"/>
    <path d="M15.0016 10.5254C14.632 10.7145 14.6363 11.2946 15.0102 11.4707C15.2035 11.561 15.3797 11.5524 15.5473 11.4364C15.7406 11.3075 15.8094 11.1657 15.7879 10.9379C15.7492 10.5684 15.341 10.3536 15.0016 10.5254Z" fill="black"/>
    <path d="M14.6578 12.068C14.5074 12.1324 14.4688 12.2055 14.4688 12.4117C14.4688 12.6008 14.6191 12.7383 14.8254 12.7383H14.9844V13.834V14.9297H14.8383C14.6234 14.9297 14.4688 15.0715 14.4688 15.2734C14.4688 15.368 14.5031 15.4754 14.5504 15.5355C14.632 15.6344 14.6492 15.6387 15.3496 15.6387C16.05 15.6387 16.0672 15.6344 16.1488 15.5355C16.3465 15.2949 16.1746 14.9297 15.8652 14.9297H15.7148V13.602V12.2699L15.6117 12.1496C15.5129 12.0379 15.4828 12.0293 15.1477 12.0164C14.9113 12.0121 14.7438 12.0293 14.6578 12.068Z" fill="black"/>
</svg>
