<svg width="22" height="22" viewBox="0 0 22 22" fill="none" xmlns="http://www.w3.org/2000/svg">
<g clip-path="url(#clip0_113_6466)">
<path d="M14.1883 1.06977C13.0109 1.65844 11.984 2.19125 11.9066 2.26C11.7047 2.43188 11.6445 2.60375 11.6445 3.02914V3.39438H9.41875C8.12539 3.39438 7.13711 3.41157 7.05117 3.43735C6.78906 3.51039 6.71172 3.75532 6.8793 3.97016L6.96524 4.08188H9.29844H11.6316L11.6617 5.07875C11.6746 5.62875 11.6961 6.15297 11.7133 6.23891L11.7391 6.40219H8.96758H6.1918L6.10586 6.51391C6.0543 6.57836 6.01563 6.67289 6.01563 6.72446C6.01563 6.77602 6.0543 6.87055 6.10586 6.935L6.1918 7.04672H9.04063H11.8852L11.941 7.24868C11.9668 7.36469 12.0355 7.56664 12.0914 7.69985L12.1945 7.94907H9.20821H6.22617L6.12305 8.05649C5.98125 8.19399 5.98125 8.39164 6.12305 8.52914L6.22617 8.63657H9.38008H12.534L12.6973 8.88149C12.7875 9.01899 12.925 9.21235 13.0066 9.31118L13.1527 9.49164L11.2363 9.50453L9.31563 9.51743L9.23399 9.62055C9.12656 9.74946 9.13086 9.92993 9.24258 10.0717L9.32852 10.1834H11.5758C13.823 10.1834 13.823 10.1834 13.9047 10.278C14.1367 10.5401 15.2926 11.3952 15.9801 11.812C16.298 12.0053 16.3711 12.0311 16.573 12.0311C16.702 12.0311 16.8609 12.001 16.9297 11.9666L17.0586 11.8979V15.7909V19.6795H12.8691H8.67969V19.3573C8.67969 19.0178 8.61094 18.8116 8.48633 18.76C8.35742 18.7127 8.21992 18.7342 8.10391 18.8245L7.99219 18.9104V20.0877C7.99219 21.2092 7.98789 21.2694 7.91055 21.3123C7.82031 21.3596 1.35352 21.3768 1.22891 21.3295C1.16875 21.3038 1.16016 21.0545 1.16016 18.9276C1.16016 16.8006 1.16875 16.5514 1.22891 16.5256C1.26758 16.5127 2.78008 16.4998 4.59336 16.4998C7.09844 16.4998 7.90195 16.5127 7.94063 16.5514C7.975 16.5858 7.99219 16.7877 7.99219 17.1702C7.99219 17.7331 7.99219 17.7416 8.10391 17.8276C8.31875 17.9952 8.59375 17.9049 8.65821 17.6471C8.67539 17.5913 8.67969 17.3034 8.6711 17.0026L8.65821 16.4569L11.3266 16.4483C13.8832 16.4354 14.0035 16.4311 14.0895 16.3538C14.2098 16.242 14.2141 15.9756 14.0938 15.8553C14.0078 15.7694 13.952 15.7694 10.8281 15.7694H7.64844V15.3182V14.867H10.8281C13.952 14.867 14.0078 14.867 14.0938 14.7811C14.227 14.6479 14.2098 14.3815 14.068 14.2698C13.9563 14.1795 13.9262 14.1795 10.7852 14.1795H7.61836L7.5668 13.8916C7.53672 13.737 7.48945 13.5436 7.45508 13.462L7.39492 13.3202H9.11367H10.8324L10.9355 13.2127C11.0773 13.0752 11.0773 12.8776 10.9355 12.7401L10.8324 12.6327H8.9332H7.03828L6.68164 12.2975C6.12305 11.7647 5.5043 11.494 4.74805 11.4424C4.32266 11.4166 3.81992 11.494 3.4332 11.6444C3.31719 11.6916 3.20977 11.7303 3.20117 11.7303C3.18828 11.7303 3.17969 10.0116 3.17969 7.9061V4.08188H4.48594H5.79649L5.88242 3.97016C6.07149 3.72953 5.94688 3.46313 5.62031 3.41586C5.51719 3.39867 4.85547 3.39438 4.14649 3.40297C2.7457 3.41586 2.72422 3.42016 2.57813 3.66508C2.49649 3.79828 2.49219 3.9186 2.49219 8.00493V12.203L2.23867 12.5038C2.10117 12.6713 1.91641 12.9463 1.83047 13.1182C1.56836 13.651 1.53399 13.8358 1.5168 14.8928L1.49531 15.8467L1.20742 15.8639C0.863674 15.8811 0.691799 15.9842 0.562892 16.2592C0.472658 16.444 0.472658 16.4784 0.481252 18.9791L0.494142 21.51L0.610158 21.6862C0.829299 22.017 0.592971 21.9998 4.57617 21.9998C8.46485 21.9998 8.25 22.0127 8.47774 21.742C8.63672 21.553 8.67969 21.3596 8.67969 20.8053V20.3241H13.041H17.4023L17.5656 20.178L17.7246 20.0319L17.7375 15.7393L17.7461 11.451L18.0555 11.2362C18.9793 10.6045 19.9461 9.67211 20.423 8.95454C21.0203 8.05219 21.3555 7.11547 21.4844 5.95102C21.5059 5.73618 21.5273 4.91117 21.5273 4.11196C21.5273 2.51352 21.523 2.47485 21.2652 2.26C21.1879 2.19125 20.1609 1.65844 18.9836 1.06977C16.9082 0.0342216 16.8309 -0.000154495 16.5859 -0.000154495C16.341 -0.000154495 16.2637 0.0342216 14.1883 1.06977ZM18.7344 1.74008L20.8398 2.79281V4.18071C20.8398 5.64594 20.7969 6.15727 20.625 6.83188C20.2211 8.41743 19.1469 9.70649 17.1273 11.0213C16.8566 11.1975 16.6117 11.3436 16.5816 11.3436C16.5559 11.3436 16.2594 11.1631 15.9242 10.9397C14.1281 9.74946 13.1184 8.59789 12.6543 7.19711C12.3922 6.42368 12.3664 6.17446 12.3449 4.41703L12.3234 2.79711L14.4246 1.74438C15.5762 1.1643 16.5473 0.691643 16.5773 0.691643C16.6031 0.687346 17.5785 1.16 18.7344 1.74008ZM5.33672 12.2588C6.07149 12.5252 6.61289 13.101 6.85352 13.8788C6.90938 14.0549 6.93086 14.3385 6.94805 14.9831L6.97383 15.8553H6.66445H6.35938V15.1979C6.35508 14.0635 6.25195 13.6811 5.81367 13.2428C5.28516 12.71 4.44727 12.5725 3.77695 12.912C3.32578 13.1354 2.95196 13.6123 2.84024 14.0979C2.81446 14.201 2.79297 14.6393 2.79297 15.069V15.8553H2.49219H2.19141V15.0905C2.19141 14.1709 2.23008 13.9217 2.45352 13.462C2.68125 12.9807 3.05508 12.6112 3.53633 12.3791C3.72969 12.2846 3.9875 12.1901 4.10352 12.1643C4.44727 12.0956 5.00586 12.1385 5.33672 12.2588ZM4.90274 13.4706C5.16914 13.5608 5.39688 13.7627 5.53008 14.0248C5.6418 14.2354 5.6461 14.2784 5.66328 15.0475L5.68047 15.8553H4.57617H3.47188L3.48906 15.026C3.50196 14.1194 3.51914 14.0506 3.79844 13.7584C4.09492 13.4405 4.50313 13.3331 4.90274 13.4706Z" fill="black"/>
<path d="M16.0059 2.26019C14.6738 2.53949 13.7328 3.41176 13.3805 4.68793C13.273 5.07035 13.273 5.92973 13.3805 6.31215C13.7199 7.55394 14.7125 8.48637 15.9328 8.72699C16.3066 8.79574 17.1746 8.75277 17.5141 8.64535C17.7976 8.55512 18.2445 8.34027 18.4551 8.19418C18.7 8.0223 19.091 7.62699 19.2586 7.37348C19.4734 7.0641 19.6797 6.61293 19.6797 6.46683C19.6797 6.32504 19.4992 6.14457 19.3574 6.14457C19.1641 6.14457 19.0867 6.22191 18.8976 6.60863C18.5668 7.28754 17.9223 7.82035 17.1875 8.01371C16.8824 8.09535 16.2465 8.09535 15.9414 8.01371C14.6137 7.66137 13.7629 6.33363 14.0293 5.02308C14.1926 4.21098 14.7125 3.53207 15.4301 3.18832C15.6277 3.09379 15.8941 2.99496 16.0187 2.96918C16.3367 2.90473 16.8609 2.91332 17.1832 2.98637C18.0726 3.19691 18.8762 4.00473 19.0781 4.89418C19.1726 5.30238 19.4691 5.45707 19.7012 5.22074C19.8258 5.10043 19.8301 5.02308 19.7398 4.67074C19.4348 3.4848 18.4594 2.54808 17.2691 2.29887C16.9941 2.23871 16.2164 2.21723 16.0059 2.26019Z" fill="black"/>
<path d="M17.093 5.18624L16.4184 5.86085L15.993 5.44406C15.5332 4.99289 15.443 4.95421 15.2367 5.11749C15.1508 5.18624 15.125 5.2421 15.125 5.3796C15.125 5.54718 15.1508 5.58156 15.632 6.0671C16.1777 6.6257 16.3195 6.72453 16.4957 6.68156C16.6203 6.65148 18.1027 5.20773 18.2016 5.01867C18.2359 4.95421 18.2617 4.86398 18.2617 4.81242C18.2617 4.67062 18.0727 4.51164 17.9094 4.51164C17.7848 4.51164 17.6902 4.58898 17.093 5.18624Z" fill="black"/>
<path d="M6.20039 9.53906C6.00703 9.6207 5.95976 9.88281 6.10585 10.0719L6.19179 10.1836H7.2832H8.3746L8.46054 10.0719C8.57226 9.93008 8.57656 9.74961 8.46914 9.6207C8.3875 9.51758 8.3832 9.51758 7.33906 9.50898C6.76757 9.50469 6.25195 9.51758 6.20039 9.53906Z" fill="black"/>
<path d="M6.10587 11.1977C5.94259 11.404 6.02423 11.6618 6.26915 11.7348C6.37227 11.7649 7.67423 11.7735 10.2094 11.7649C13.866 11.752 14.0035 11.7477 14.0895 11.6704C14.1539 11.6102 14.1797 11.5372 14.1797 11.404C14.1797 11.0645 14.4805 11.086 10.0934 11.086H6.19181L6.10587 11.1977Z" fill="black"/>
<path d="M11.623 12.7402C11.5543 12.8047 11.5156 12.8949 11.5156 12.9766C11.5156 13.0582 11.5543 13.1484 11.623 13.2129L11.7262 13.3203H12.8391C13.9004 13.3203 13.9605 13.316 14.068 13.2301C14.2098 13.1184 14.227 12.852 14.0938 12.7188C14.0121 12.6371 13.952 12.6328 12.8691 12.6328H11.7262L11.623 12.7402Z" fill="black"/>
</g>
<defs>
<clipPath id="clip0_113_6466">
<rect width="22" height="22" fill="white"/>
</clipPath>
</defs>
</svg>
