<svg width="22" height="22" viewBox="0 0 22 22" fill="none" xmlns="http://www.w3.org/2000/svg">
    <path d="M19.638 13.136L19.539 12.141L19.506 12.144L19.474 12.15L19.638 13.136ZM19.638 13.136L19.738 14.131L19.771 14.128L19.803 14.123L19.638 13.136ZM15.598 18.618L16.231 17.844L16.223 17.838L15.598 18.618ZM15.598 18.618L14.965 19.392L14.973 19.399L15.598 18.618ZM6.40202 18.618L5.76902 17.845L5.75302 17.858L5.73802 17.871L6.40202 18.618ZM6.40202 18.618L7.03502 19.393L7.05102 19.38L7.06602 19.366L6.40202 18.618ZM2.36102 8.86399V7.86399H2.31102L2.26202 7.86899L2.36102 8.86399ZM2.36102 8.86399V9.86399H2.41102L2.46102 9.85899L2.36102 8.86399ZM14.131 2.26099C14.1145 2.06864 14.0908 1.87688 14.062 1.68599C14.0312 1.47584 13.967 1.27196 13.872 1.08199L12.095 1.99999C12.072 1.95499 12.077 1.93899 12.09 2.01799C12.105 2.10699 12.118 2.23099 12.141 2.46099L14.131 2.26099ZM14.226 3.21099C14.289 3.29299 14.268 3.32999 14.233 3.13499C14.2 2.94899 14.174 2.68799 14.131 2.26099L12.14 2.45999C12.18 2.85399 12.214 3.20799 12.265 3.48999C12.314 3.75999 12.4 4.11499 12.635 4.42299L14.226 3.21099ZM14.226 3.21099L12.635 4.42299C12.849 4.70384 13.1336 4.92302 13.4597 5.05826C13.7859 5.19351 14.1421 5.23999 14.492 5.19299L14.226 3.21099ZM14.964 2.60599C14.7399 2.7954 14.5094 2.97717 14.273 3.15099C14.11 3.26399 14.123 3.22399 14.226 3.21099L14.492 5.19299C14.876 5.14099 15.188 4.95099 15.414 4.79299C15.649 4.63099 15.924 4.40499 16.23 4.15399L14.964 2.60599ZM15.98 1.95599C15.7787 2.02295 15.5894 2.12152 15.419 2.24799C15.279 2.34799 15.122 2.47699 14.964 2.60599L16.23 4.15399C16.409 4.00799 16.506 3.92899 16.58 3.87699C16.645 3.82999 16.636 3.84599 16.589 3.86099L15.98 1.95599ZM17.384 2.02599C16.9399 1.83353 16.4411 1.80866 15.98 1.95599L16.589 3.86099L17.384 2.02599ZM18.33 2.77399C18.1954 2.63555 18.0563 2.50148 17.913 2.37199C17.7558 2.22926 17.5769 2.11246 17.383 2.02599L16.589 3.86099C16.543 3.84099 16.536 3.82499 16.596 3.87799C16.664 3.93799 16.753 4.02499 16.916 4.18799L18.33 2.77399ZM19.224 3.66799L18.33 2.77399L16.916 4.18799L17.81 5.08199L19.224 3.66799ZM19.972 4.61399C19.8856 4.42008 19.7688 4.24117 19.626 4.08399C19.4965 3.94105 19.3624 3.80231 19.224 3.66799L17.81 5.08299C17.973 5.24599 18.06 5.33499 18.12 5.40299C18.173 5.46299 18.157 5.45599 18.137 5.40999L19.972 4.61399ZM20.042 6.01799C20.1893 5.55694 20.1645 5.0581 19.972 4.61399L18.137 5.40999L20.042 6.01799ZM19.392 7.03399C19.5162 6.8862 19.6356 6.73446 19.75 6.57899C19.856 6.43099 19.97 6.24699 20.042 6.01799L18.137 5.40999C18.152 5.36299 18.167 5.35299 18.121 5.41899C18.069 5.49199 17.991 5.58899 17.844 5.76799L19.392 7.03399ZM18.787 7.77299C18.774 7.87599 18.734 7.88799 18.847 7.72499C18.954 7.56999 19.12 7.36599 19.392 7.03399L17.844 5.76799C17.594 6.07399 17.367 6.34899 17.204 6.58399C17.047 6.80999 16.857 7.12199 16.805 7.50599L18.787 7.77299ZM18.787 7.77299L16.805 7.50599C16.758 7.85594 16.8045 8.2121 16.9397 8.53827C17.075 8.86443 17.2942 9.14898 17.575 9.36299L18.787 7.77299ZM19.737 7.86799C19.4446 7.84353 19.1531 7.80918 18.863 7.76499C18.668 7.72999 18.705 7.70999 18.787 7.77299L17.575 9.36299C17.883 9.59799 18.237 9.68399 18.509 9.73299C18.79 9.78299 19.144 9.81799 19.538 9.85799L19.737 7.86799ZM20.916 8.12599C20.7261 8.03099 20.5222 7.96685 20.312 7.93599C20.1211 7.90716 19.9294 7.88448 19.737 7.86799L19.538 9.85799C19.6861 9.871 19.8338 9.88767 19.981 9.90799C20.061 9.92199 20.044 9.92699 19.999 9.90399L20.916 8.12599ZM21.859 9.16899C21.6813 8.71865 21.3462 8.34806 20.916 8.12599L20 9.90599L21.859 9.16899ZM21.999 10.367C21.999 10.163 21.999 9.95999 21.988 9.78799C21.9779 9.57573 21.934 9.36644 21.858 9.16799L20 9.90599C19.982 9.85899 19.988 9.84299 19.994 9.92299C20 10.013 20 10.138 20 10.369L21.999 10.367ZM21.999 11.631V10.367H19.999V11.631H21.999ZM21.859 12.829C21.947 12.606 21.976 12.392 21.988 12.209C21.999 12.038 21.999 11.835 21.999 11.631H19.999C19.999 11.862 19.999 11.987 19.993 12.077C19.987 12.157 19.981 12.141 19.999 12.094L21.859 12.829ZM20.916 13.872C21.3462 13.6499 21.6813 13.2793 21.859 12.829L20 12.095L20.916 13.872ZM19.737 14.13C19.941 14.11 20.142 14.09 20.312 14.062C20.492 14.032 20.702 13.982 20.916 13.872L20 12.095C20.044 12.072 20.061 12.077 19.982 12.09C19.8349 12.1111 19.6871 12.1281 19.539 12.141L19.737 14.13ZM18.788 14.225C18.705 14.288 18.668 14.268 18.863 14.233C19.049 14.2 19.31 14.173 19.737 14.13L19.538 12.14C19.145 12.18 18.79 12.214 18.509 12.265C18.238 12.314 17.883 12.4 17.575 12.635L18.788 14.225ZM18.788 14.225L17.575 12.635C17.2942 12.849 17.075 13.1335 16.9397 13.4597C16.8045 13.7859 16.758 14.142 16.805 14.492L18.788 14.225ZM19.392 14.963C19.2026 14.7392 19.0209 14.5091 18.847 14.273C18.734 14.11 18.775 14.122 18.788 14.225L16.805 14.492C16.857 14.876 17.047 15.188 17.205 15.414C17.368 15.649 17.594 15.924 17.844 16.23L19.392 14.963ZM20.042 15.979C19.975 15.778 19.8764 15.589 19.75 15.419C19.65 15.278 19.521 15.122 19.392 14.963L17.844 16.23C17.99 16.409 18.069 16.505 18.121 16.579C18.168 16.644 18.153 16.636 18.137 16.589L20.042 15.979ZM19.972 17.384C20.1647 16.9396 20.1896 16.4403 20.042 15.979L18.137 16.589L19.972 17.384ZM19.224 18.33C19.369 18.185 19.512 18.043 19.626 17.913C19.746 17.775 19.876 17.604 19.972 17.383L18.137 16.588C18.157 16.542 18.173 16.536 18.12 16.596C18.06 16.664 17.973 16.752 17.81 16.916L19.224 18.33ZM18.33 19.223L19.224 18.33L17.81 16.916L16.916 17.809L18.33 19.223ZM17.384 19.972C17.578 19.8852 17.7569 19.7681 17.914 19.625C18.043 19.512 18.186 19.368 18.33 19.223L16.916 17.809C16.8123 17.9153 16.7055 18.0186 16.596 18.119C16.536 18.173 16.543 18.157 16.589 18.137L17.384 19.972ZM15.98 20.042C16.4411 20.1893 16.9399 20.1644 17.384 19.972L16.589 18.137L15.98 20.042ZM14.964 19.392C15.122 19.521 15.278 19.65 15.419 19.75C15.567 19.855 15.751 19.969 15.98 20.042L16.589 18.137C16.636 18.152 16.645 18.167 16.579 18.121C16.4601 18.0319 16.3438 17.9395 16.23 17.844L14.964 19.392ZM14.226 18.788C14.123 18.773 14.11 18.733 14.273 18.846C14.428 18.954 14.631 19.119 14.963 19.391L16.23 17.844C15.924 17.593 15.649 17.367 15.414 17.204C15.188 17.046 14.876 16.857 14.492 16.805L14.226 18.788ZM14.226 18.788L14.492 16.805C14.1421 16.758 13.7859 16.8045 13.4597 16.9397C13.1336 17.075 12.849 17.2941 12.635 17.575L14.226 18.788ZM14.13 19.737C14.173 19.31 14.2 19.048 14.233 18.863C14.268 18.668 14.288 18.704 14.225 18.787L12.635 17.574C12.4 17.882 12.314 18.237 12.265 18.508C12.215 18.79 12.181 19.144 12.141 19.538L14.13 19.737ZM13.871 20.916C13.981 20.702 14.031 20.492 14.061 20.312C14.091 20.142 14.109 19.941 14.13 19.737L12.141 19.538C12.1278 19.6864 12.1105 19.8335 12.089 19.981C12.076 20.061 12.071 20.044 12.094 19.999L13.871 20.916ZM12.83 21.859C13.2796 21.6809 13.6494 21.3458 13.871 20.916L12.095 20L12.83 21.859ZM11.63 21.999C11.835 21.999 12.038 21.999 12.21 21.988C12.392 21.976 12.606 21.949 12.83 21.859L12.095 20C12.142 19.982 12.158 19.988 12.078 19.994C11.9294 20.0001 11.7807 20.0021 11.632 20L11.63 21.999ZM10.367 21.999H11.63L11.631 19.999H10.367V21.999ZM9.16902 21.859C9.39202 21.947 9.60602 21.976 9.78902 21.988C9.96002 21.999 10.163 21.999 10.367 21.999V19.999C10.136 19.999 10.011 19.999 9.92102 19.993C9.84102 19.987 9.85702 19.981 9.90402 19.999L9.16902 21.859ZM8.12602 20.916C8.34809 21.3462 8.71868 21.6813 9.16902 21.859L9.90402 19.999L8.12602 20.916ZM7.86802 19.737C7.88802 19.941 7.90802 20.142 7.93602 20.312C7.96602 20.492 8.01602 20.702 8.12602 20.916L9.90602 20C9.92902 20.044 9.92402 20.061 9.91102 19.982C9.88991 19.8348 9.8729 19.6871 9.86002 19.539L7.86802 19.737ZM7.77302 18.787C7.71002 18.705 7.73002 18.667 7.76502 18.863C7.79802 19.048 7.82502 19.31 7.86802 19.737L9.85802 19.538C9.81802 19.144 9.78402 18.79 9.73302 18.508C9.68402 18.238 9.59802 17.883 9.36302 17.575L7.77302 18.787ZM7.77302 18.787L9.36302 17.575C9.14901 17.2941 8.86446 17.075 8.5383 16.9397C8.21213 16.8045 7.85597 16.758 7.50602 16.805L7.77302 18.787ZM7.03402 19.392C7.36702 19.12 7.57002 18.954 7.72502 18.847C7.88802 18.734 7.87602 18.774 7.77302 18.787L7.50602 16.805C7.12202 16.857 6.81002 17.047 6.58402 17.205C6.34902 17.367 6.07402 17.593 5.76802 17.844L7.03402 19.392ZM6.01802 20.042C6.21932 19.975 6.40869 19.8765 6.57902 19.75C6.71902 19.65 6.87602 19.521 7.03402 19.392L5.76902 17.845C5.65495 17.9406 5.53924 18.0329 5.42002 18.122C5.35502 18.169 5.36402 18.154 5.41102 18.138L6.01802 20.042ZM4.61402 19.972C5.05813 20.1644 5.55697 20.1893 6.01802 20.042L5.40902 18.137L4.61402 19.972ZM3.66702 19.224C3.81202 19.369 3.95502 19.512 4.08502 19.626C4.22202 19.746 4.39302 19.877 4.61502 19.973L5.40902 18.137C5.45502 18.157 5.46202 18.173 5.40202 18.12C5.2925 18.0196 5.18579 17.9163 5.08202 17.81L3.66702 19.224ZM2.77402 18.33L3.66802 19.224L5.08202 17.81L4.18802 16.916L2.77402 18.33ZM2.02602 17.384C2.12102 17.604 2.25202 17.776 2.37202 17.914C2.48602 18.043 2.62902 18.186 2.77402 18.33L4.18802 16.916C4.08174 16.8122 3.97836 16.7055 3.87802 16.596C3.82502 16.536 3.84102 16.543 3.86102 16.589L2.02602 17.384ZM1.95602 15.98C1.80869 16.441 1.83357 16.9399 2.02602 17.384L3.86102 16.589L1.95602 15.98ZM2.60602 14.964C2.48184 15.1118 2.36244 15.2635 2.24802 15.419C2.12155 15.5893 2.02298 15.7787 1.95602 15.98L3.86102 16.589C3.84502 16.636 3.83102 16.645 3.87702 16.579C3.92902 16.506 4.00702 16.409 4.15402 16.23L2.60602 14.964ZM3.21002 14.225C3.22402 14.122 3.26402 14.11 3.15102 14.273C3.04402 14.428 2.87802 14.632 2.60602 14.964L4.15402 16.23C4.40402 15.924 4.63102 15.649 4.79402 15.414C4.95102 15.188 5.14102 14.876 5.19302 14.492L3.21002 14.225ZM3.21002 14.225L5.19302 14.492C5.24002 14.142 5.19354 13.7859 5.05829 13.4597C4.92305 13.1335 4.70387 12.849 4.42302 12.635L3.21002 14.225ZM2.26002 14.13C2.68802 14.173 2.95002 14.2 3.13502 14.233C3.33002 14.268 3.29302 14.288 3.21002 14.225L4.42302 12.635C4.11502 12.4 3.76102 12.314 3.48902 12.265C3.20802 12.215 2.85402 12.18 2.45902 12.14L2.26002 14.13ZM1.08202 13.872C1.29602 13.982 1.50602 14.032 1.68602 14.062C1.85602 14.09 2.05702 14.111 2.26102 14.131L2.45902 12.14C2.31092 12.1274 2.16419 12.1108 2.01702 12.09C1.93702 12.076 1.95402 12.071 1.99902 12.094L1.08202 13.872ZM0.14002 12.83C0.317751 13.2803 0.652807 13.6509 1.08302 13.873L2.00002 12.095L0.14002 12.83ZM2.04061e-05 11.632C2.04061e-05 11.836 2.04435e-05 12.039 0.0110204 12.211C0.0230204 12.393 0.0510204 12.607 0.14102 12.831L2.00002 12.094C2.01802 12.141 2.01202 12.157 2.00702 12.077C2.00056 11.9287 1.99823 11.7804 2.00002 11.632H2.04061e-05ZM2.04061e-05 10.368V11.632H2.00002V10.368H2.04061e-05ZM0.14002 9.16899C0.0643663 9.36749 0.0208206 9.57678 0.0110204 9.78899C-0.000979557 9.96099 2.04061e-05 10.164 2.04061e-05 10.369H2.00002C2.00002 10.137 2.00002 10.012 2.00702 9.92199C2.01202 9.84199 2.01802 9.85799 2.00002 9.90499L0.14002 9.16899ZM1.08302 8.12799C0.653167 8.34957 0.318159 8.71939 0.14002 9.16899L2.00002 9.90499L1.08302 8.12799ZM2.26202 7.86799C2.05802 7.88899 1.85702 7.90799 1.68702 7.93799C1.50702 7.96799 1.29702 8.01799 1.08302 8.12799L2.00002 9.90499C1.95502 9.92799 1.93902 9.92299 2.01802 9.90999C2.16518 9.88888 2.31291 9.87187 2.46102 9.85899L2.26202 7.86799ZM3.21202 7.77399C3.29502 7.71099 3.33202 7.73099 3.13602 7.76599C2.95102 7.79899 2.68902 7.82599 2.26202 7.86899L2.46102 9.85899C2.85402 9.81899 3.20902 9.78499 3.49102 9.73399C3.76202 9.68499 4.11702 9.59899 4.42502 9.36399L3.21202 7.77399ZM3.21202 7.77399L4.42502 9.36399C4.70569 9.14986 4.92467 8.86527 5.05974 8.53911C5.1948 8.21295 5.24113 7.85685 5.19402 7.50699L3.21202 7.77399ZM2.60702 7.03499C2.87902 7.36699 3.04502 7.57099 3.15302 7.72599C3.26602 7.88899 3.22602 7.87699 3.21202 7.77399L5.19402 7.50699C5.14202 7.12299 4.95302 6.81199 4.79502 6.58499C4.63202 6.34999 4.40502 6.07499 4.15502 5.76899L2.60702 7.03499ZM1.95702 6.01799C2.03002 6.24799 2.14302 6.43099 2.24902 6.57999C2.34902 6.71999 2.47802 6.87699 2.60702 7.03499L4.15502 5.76899C4.05945 5.65492 3.96708 5.53921 3.87802 5.41999C3.83102 5.35499 3.84702 5.36299 3.86202 5.40999L1.95702 6.01799ZM2.02702 4.61499C1.83481 5.05881 1.80995 5.55724 1.95702 6.01799L3.86202 5.40999L2.02702 4.61499ZM2.77502 3.66799C2.63002 3.81299 2.48702 3.95499 2.37302 4.08499C2.23029 4.24217 2.11349 4.42108 2.02702 4.61499L3.86202 5.40999C3.84202 5.45599 3.82602 5.46299 3.87902 5.40199C3.93902 5.33399 4.02602 5.24599 4.18902 5.08199L2.77502 3.66799ZM3.66902 2.77499L2.77502 3.66799L4.18902 5.08199L5.08402 4.18899L3.66902 2.77499ZM4.61502 2.02599C4.42104 2.11277 4.24213 2.2299 4.08502 2.37299C3.94208 2.5025 3.80334 2.63657 3.66902 2.77499L5.08402 4.18899C5.24702 4.02499 5.33502 3.93799 5.40302 3.87899C5.46302 3.82499 5.45602 3.84099 5.41002 3.86099L4.61502 2.02599ZM6.01902 1.95599C5.55797 1.80866 5.05913 1.83353 4.61502 2.02599L5.41002 3.86099L6.01902 1.95599ZM7.03402 2.60599C6.87602 2.47699 6.72102 2.34899 6.58002 2.24899C6.40976 2.12217 6.22039 2.02326 6.01902 1.95599L5.41002 3.86099C5.36302 3.84599 5.35402 3.83099 5.42002 3.87699C5.49302 3.92999 5.59002 4.00799 5.76902 4.15499L7.03402 2.60599ZM7.77402 3.21099C7.87702 3.22499 7.88902 3.26499 7.72602 3.15199C7.48994 2.97816 7.25981 2.79639 7.03602 2.60699L5.76902 4.15499C6.07502 4.40499 6.34902 4.63099 6.58402 4.79499C6.81002 4.95199 7.12202 5.14099 7.50602 5.19299L7.77402 3.21099ZM7.77402 3.21099L7.50702 5.19299C7.85697 5.23999 8.21313 5.19351 8.5393 5.05826C8.86546 4.92302 9.15001 4.70384 9.36402 4.42299L7.77402 3.21099ZM7.86902 2.26099C7.82602 2.68899 7.79902 2.95099 7.76602 3.13599C7.73102 3.33099 7.71102 3.29399 7.77402 3.21099L9.36402 4.42299C9.59902 4.11499 9.68502 3.76099 9.73402 3.48999C9.78402 3.20899 9.82002 2.85399 9.85902 2.45999L7.86902 2.26099ZM8.12702 1.08299C8.03202 1.27296 7.96788 1.47684 7.93702 1.68699C7.90902 1.85699 7.88902 2.05799 7.86902 2.26199L9.85902 2.45999C9.87203 2.31193 9.8887 2.16522 9.90902 2.01799C9.92302 1.93799 9.92802 1.95599 9.90502 1.99999L8.12702 1.08299ZM9.17002 0.13999C8.71968 0.317721 8.34909 0.652776 8.12702 1.08299L9.90502 1.99999L9.17002 0.13999ZM10.368 -1.01115e-05C10.164 -1.01115e-05 9.96102 -1.00741e-05 9.78902 0.0109899C9.57681 0.02079 9.36752 0.0643357 9.16902 0.13999L9.90602 1.99999C9.85902 2.01799 9.84302 2.01199 9.92302 2.00699C10.013 2.00099 10.138 1.99999 10.369 1.99999L10.368 -1.01115e-05ZM11.632 -1.01115e-05H10.368V1.99999H11.632V-1.01115e-05ZM12.83 0.13999C12.6315 0.0643357 12.4222 0.02079 12.21 0.0109899C12.04 -0.00101007 11.837 -1.01115e-05 11.633 -1.01115e-05V1.99999C11.864 1.99999 11.989 1.99999 12.079 2.00699C12.159 2.01199 12.142 2.01799 12.095 1.99999L12.83 0.13999ZM13.873 1.08299C13.651 0.652776 13.2804 0.317721 12.83 0.13999L12.095 1.99999L13.873 1.08299ZM14 11C14 11.7956 13.6839 12.5587 13.1213 13.1213C12.5587 13.6839 11.7957 14 11 14V16C12.3261 16 13.5979 15.4732 14.5356 14.5355C15.4732 13.5978 16 12.3261 16 11H14ZM11 7.99999C11.7957 7.99999 12.5587 8.31606 13.1213 8.87867C13.6839 9.44128 14 10.2043 14 11H16C16 9.67391 15.4732 8.40214 14.5356 7.46446C13.5979 6.52677 12.3261 5.99999 11 5.99999V7.99999ZM8.00002 11C8.00002 10.2043 8.31609 9.44128 8.8787 8.87867C9.44131 8.31606 10.2044 7.99999 11 7.99999V5.99999C9.67394 5.99999 8.40217 6.52677 7.46449 7.46446C6.5268 8.40214 6.00002 9.67391 6.00002 11H8.00002ZM11 14C10.2044 14 9.44131 13.6839 8.8787 13.1213C8.31609 12.5587 8.00002 11.7956 8.00002 11H6.00002C6.00002 12.3261 6.5268 13.5978 7.46449 14.5355C8.40217 15.4732 9.67394 16 11 16V14Z" fill="#1C2A45"/>
</svg>
