<svg width="24" height="24" viewBox="0 0 24 24" fill="none" xmlns="http://www.w3.org/2000/svg">
    <path d="M10.4672 0.0984364C10.2516 0.234375 10.125 0.529686 10.125 0.881248V1.16719L7.27969 1.18125C4.49532 1.19531 4.425 1.19531 4.21407 1.29375C3.90469 1.43906 3.67969 1.65937 3.52969 1.95937L3.39844 2.22656L3.38438 12.5156C3.375 21.5531 3.38438 22.8328 3.44532 23.0437C3.53438 23.3578 3.87657 23.7422 4.19532 23.8875C4.425 23.9953 4.45313 24 6.00938 24H7.58907L7.68282 23.8781C7.80469 23.7188 7.80938 23.5781 7.6875 23.4234L7.59375 23.3016L6.09375 23.2875C4.66407 23.2734 4.59375 23.2687 4.46719 23.175C4.39688 23.1234 4.28907 23.0062 4.23282 22.9219L4.125 22.7672V12.6141C4.125 2.81719 4.12969 2.45156 4.21407 2.29688C4.26094 2.20781 4.38282 2.08594 4.48125 2.02969L4.66407 1.92188H7.39688H10.125V2.36719V2.80781L7.86563 2.82187C5.35313 2.83594 5.42344 2.82656 5.19375 3.15L5.08594 3.30469L5.07188 12.5672L5.0625 21.8297L5.17032 21.9891C5.22657 22.0734 5.34844 22.1953 5.43282 22.2516L5.59219 22.3594H12H18.4078L18.5672 22.2516C18.6516 22.1953 18.7734 22.0734 18.8297 21.9891L18.9375 21.8297V14.3906V6.95156L18.8297 6.85312C18.6938 6.72656 18.4688 6.72187 18.3234 6.83906L18.2109 6.92812L18.1969 14.2687L18.1875 21.6094H12H5.8125V12.5859V3.5625H7.96407H10.1109L10.1344 3.93281C10.1531 4.25156 10.1766 4.33125 10.2891 4.47656C10.5094 4.76719 10.5797 4.78125 12 4.78125C13.4203 4.78125 13.4906 4.76719 13.7109 4.47656C13.8234 4.33125 13.8469 4.25156 13.8656 3.93281L13.8891 3.5625H16.0359H18.1828L18.1969 4.62187C18.2109 5.67188 18.2109 5.68125 18.3234 5.77031C18.4781 5.89687 18.7078 5.8875 18.8391 5.74687C18.9422 5.63906 18.9422 5.62031 18.9281 4.47187C18.9141 3.3375 18.9094 3.3 18.8063 3.15C18.5766 2.82656 18.6469 2.83594 16.1391 2.82187L13.875 2.80781V2.3625V1.92188L16.6547 1.93125L19.4297 1.94531L19.575 2.04844C19.8984 2.28281 19.875 1.38281 19.875 12.6234V22.7672L19.7719 22.9219C19.7109 23.0062 19.6031 23.1234 19.5328 23.175C19.4016 23.2734 19.3875 23.2734 14.1094 23.2969C8.8875 23.3203 8.81719 23.3203 8.74688 23.4141C8.64375 23.55 8.65313 23.775 8.76563 23.8969L8.86407 24H14.2172H19.5703L19.8047 23.8875C20.1234 23.7422 20.4656 23.3578 20.5547 23.0437C20.6156 22.8328 20.625 21.5531 20.6156 12.5156L20.6016 2.22656L20.5031 2.01094C20.3578 1.70156 20.1375 1.47656 19.8375 1.32656L19.5703 1.19531L16.725 1.18125L13.875 1.16719V0.881248C13.875 0.525 13.7438 0.229687 13.5281 0.09375C13.3781 0.00468636 13.2984 0 11.9953 0C10.6875 0 10.6078 0.00468636 10.4672 0.0984364ZM13.125 2.36719V4.03125H12H10.875V2.36719V0.703125H12H13.125V2.36719Z" fill="white"/>
    <path d="M7.0875 6.20168C6.8625 6.44074 7.00781 6.78293 7.34531 6.82981L7.54219 6.85324L7.55625 7.81418C7.57031 8.75637 7.57031 8.77512 7.68281 8.86418C7.82344 8.98137 8.02031 8.97668 8.175 8.85481L8.29688 8.76106V7.80012V6.84387H8.4375C8.74688 6.84387 8.94844 6.62356 8.87813 6.35637C8.82188 6.12199 8.71875 6.09387 7.92188 6.09387C7.21406 6.09387 7.18594 6.09856 7.0875 6.20168Z" fill="white"/>
    <path d="M10.2234 6.17344C10.1156 6.26719 9.28125 8.41406 9.28125 8.60625C9.28125 8.76094 9.47813 8.95312 9.63281 8.95312C9.82969 8.95312 9.9375 8.86875 10.0312 8.64375L10.1203 8.4375H10.4953H10.8656L10.9359 8.62031C10.9781 8.72344 11.0578 8.83594 11.1188 8.87812C11.3391 9.03281 11.6297 8.925 11.6953 8.6625C11.7328 8.52187 10.9172 6.35625 10.7719 6.20156C10.65 6.07031 10.3688 6.05625 10.2234 6.17344ZM10.5234 7.67812C10.4203 7.70156 10.3969 7.67344 10.4344 7.57031C10.4672 7.49062 10.4719 7.49062 10.5328 7.575C10.5891 7.65469 10.5891 7.66406 10.5234 7.67812Z" fill="white"/>
    <path d="M12.9938 6.15937C12.6234 6.29062 12.3797 6.70312 12.4453 7.08749C12.4969 7.38281 12.7172 7.58906 13.1906 7.77656C13.6641 7.96874 13.7531 8.03906 13.6172 8.14218C13.4859 8.24062 13.2047 8.18906 12.9984 8.03437C12.6703 7.78593 12.3281 7.91249 12.3281 8.28281C12.3281 8.69999 13.2094 9.08437 13.7625 8.90624C14.1609 8.77968 14.4375 8.43749 14.4375 8.06718C14.4375 7.59843 14.1891 7.34062 13.4766 7.07343C13.3313 7.01718 13.2234 6.95156 13.2328 6.92343C13.2609 6.82968 13.4859 6.83437 13.6828 6.93281C13.9266 7.05937 14.1609 7.05937 14.2734 6.93749C14.4 6.79687 14.3859 6.54374 14.25 6.39843C14.0109 6.14531 13.3688 6.01874 12.9938 6.15937Z" fill="white"/>
    <path d="M15.1828 6.18289L15.0703 6.27195V7.52351V8.77507L15.1828 8.86414C15.3234 8.98132 15.5203 8.97664 15.675 8.85476C15.7781 8.77507 15.7969 8.72351 15.7969 8.52195V8.28289L16.1438 8.6157C16.5281 8.9907 16.6641 9.03289 16.8938 8.85476C16.9875 8.78445 17.0156 8.71882 17.0156 8.58757C17.0156 8.4282 16.9734 8.36726 16.5422 7.94539L16.0734 7.47664L16.5047 7.07351C16.8984 6.7032 16.9406 6.65164 16.9406 6.49695C16.9406 6.27195 16.7953 6.12195 16.5797 6.12195C16.4531 6.12195 16.3594 6.17351 16.1203 6.38914L15.8203 6.65632L15.8063 6.4782C15.7781 6.13601 15.4359 5.97664 15.1828 6.18289Z" fill="white"/>
    <path d="M7.88437 9.7546C7.62187 9.80616 7.40625 9.9421 7.18125 10.1952C6.96562 10.439 6.89062 10.664 6.89062 11.0718C6.89062 11.7327 7.37812 12.253 8.05781 12.314C8.60625 12.3655 9.06562 12.1124 9.32344 11.6202C9.46875 11.339 9.47812 11.2968 9.45937 10.9687C9.43594 10.5702 9.33281 10.3265 9.08437 10.0921C8.79375 9.81085 8.29687 9.67022 7.88437 9.7546ZM8.35781 10.5187C8.56875 10.6077 8.67656 10.7437 8.70469 10.9593C8.7375 11.1937 8.62031 11.4046 8.40937 11.5077C8.22187 11.5968 8.09531 11.5968 7.92656 11.5124C7.51875 11.2968 7.55156 10.7108 7.9875 10.5187C8.17031 10.439 8.175 10.439 8.35781 10.5187Z" fill="white"/>
    <path d="M10.5281 9.98906C10.4344 10.0641 10.4062 10.125 10.4062 10.2656C10.4062 10.4062 10.4344 10.4672 10.5281 10.5422C10.65 10.6406 10.6875 10.6406 13.7766 10.6406C16.8609 10.6406 16.9078 10.6406 17.0062 10.5469C17.1609 10.4016 17.1469 10.1156 16.9875 9.98906C16.8656 9.89062 16.8281 9.89062 13.7578 9.89062C10.6875 9.89062 10.65 9.89062 10.5281 9.98906Z" fill="white"/>
    <path d="M10.6125 11.4563C10.3875 11.5594 10.3266 11.8734 10.5 12.0469C10.5891 12.1359 10.6547 12.1406 12.9047 12.1406C15.1781 12.1406 15.2203 12.1406 15.3047 12.0469C15.4266 11.9109 15.4219 11.6484 15.2906 11.5172L15.1828 11.4141L12.9703 11.4C11.1516 11.3906 10.7297 11.4 10.6125 11.4563Z" fill="white"/>
    <path d="M7.64062 13.828C7.15781 14.053 6.89062 14.4796 6.89062 15.0233C6.89531 15.7499 7.35469 16.2515 8.06719 16.303C8.48438 16.3311 8.8125 16.2233 9.06563 15.9655C9.32344 15.7124 9.43594 15.464 9.45938 15.1077C9.49688 14.5874 9.26719 14.1468 8.82656 13.889C8.52656 13.7155 7.95 13.6827 7.64062 13.828ZM8.4375 14.5546C8.5125 14.5968 8.60625 14.6905 8.64844 14.7655C8.84531 15.1499 8.58281 15.5624 8.12813 15.5624C7.99688 15.5624 7.92188 15.5249 7.8 15.403C7.66406 15.2671 7.64062 15.2108 7.64062 15.0233C7.64062 14.8358 7.66406 14.7796 7.8 14.6436C7.98281 14.4608 8.20312 14.4327 8.4375 14.5546Z" fill="white"/>
    <path d="M10.6078 13.9219C10.3875 14.0109 10.3359 14.3531 10.5141 14.5219L10.6219 14.625H13.7719C16.8609 14.625 16.9219 14.625 17.0156 14.5312C17.1469 14.4 17.1422 14.1094 17.0109 13.9875C16.9172 13.9031 16.7859 13.8984 13.8094 13.8891C12.0797 13.8844 10.6641 13.8984 10.6078 13.9219Z" fill="white"/>
    <path d="M10.5 15.5156C10.3781 15.6375 10.3781 15.8906 10.4953 16.0359L10.5844 16.1484L12.8578 16.1625L15.1313 16.1765L15.2625 16.064C15.4313 15.9187 15.4406 15.6328 15.2813 15.5062C15.1828 15.4265 15.0141 15.4218 12.8859 15.4218C10.6547 15.4218 10.5891 15.4265 10.5 15.5156Z" fill="white"/>
    <path d="M7.70625 17.7938C7.22344 17.972 6.89062 18.4548 6.89062 18.9751C6.89062 19.4345 6.96563 19.6266 7.26562 19.9266C7.45781 20.1188 7.57969 20.2032 7.75781 20.2501C8.69531 20.5126 9.53438 19.8563 9.45938 18.9188C9.42188 18.4454 9.16406 18.0657 8.74688 17.8501C8.49844 17.7235 7.97344 17.6907 7.70625 17.7938ZM8.4375 18.5438C8.71875 18.7126 8.79375 19.0454 8.61094 19.3173C8.32031 19.7485 7.64062 19.547 7.64062 19.0266C7.64062 18.7876 7.70156 18.6751 7.88906 18.5626C8.07188 18.4501 8.26406 18.4454 8.4375 18.5438Z" fill="white"/>
    <path d="M10.5 18C10.3781 18.1219 10.3734 18.389 10.4953 18.5109C10.5469 18.5625 10.6594 18.6187 10.7438 18.6328C10.8281 18.6469 12.2531 18.6562 13.9031 18.6469C16.7859 18.6328 16.9172 18.6281 17.0109 18.5437C17.1422 18.4219 17.1469 18.1312 17.0156 18C16.9219 17.9062 16.8609 17.9062 13.7578 17.9062C10.6547 17.9062 10.5938 17.9062 10.5 18Z" fill="white"/>
    <path d="M10.5281 19.5047C10.4344 19.5797 10.4062 19.6406 10.4062 19.7812C10.4062 19.9219 10.4344 19.9828 10.5281 20.0578C10.65 20.1562 10.6969 20.1562 12.9563 20.1562C15.2109 20.1562 15.2672 20.1562 15.3656 20.0625C15.4219 20.0109 15.4781 19.9172 15.4969 19.8562C15.5297 19.725 15.4125 19.4766 15.3047 19.4344C15.2625 19.4203 14.1984 19.4062 12.9422 19.4062C10.6969 19.4062 10.65 19.4062 10.5281 19.5047Z" fill="white"/>
</svg>
