<svg width="15" height="14" viewBox="0 0 15 14" fill="none" xmlns="http://www.w3.org/2000/svg">
    <path d="M7.76016 0.33086C7.55234 0.410156 7.33906 0.615234 7.24609 0.825782C7.03555 1.29063 7.24609 1.85391 7.70547 2.06445L7.86406 2.13828L7.85586 2.46641L7.84766 2.79727L7.58789 2.86836C6.86602 3.0707 6.19062 3.4207 5.58906 3.90469C5.37852 4.07422 4.83711 4.61836 4.75508 4.74141L4.71133 4.8125H3.67227H2.6332L2.55391 4.8918C2.39531 5.05313 2.47461 5.32656 2.69609 5.37031C2.74531 5.37852 3.12539 5.38672 3.54648 5.38672C3.96758 5.38672 4.30664 5.39492 4.30117 5.40586C4.2957 5.41953 4.22187 5.56445 4.13984 5.73125C4.05508 5.89805 3.95664 6.1168 3.92109 6.21797L3.85547 6.39844H2.34336C1.04727 6.39844 0.820312 6.40391 0.751953 6.43945C0.650781 6.49141 0.615234 6.55703 0.615234 6.69922C0.615234 6.78945 0.631641 6.83047 0.694531 6.89336L0.773828 6.97266H2.23125H3.68594L3.6668 7.07383C3.62305 7.32813 3.56836 7.76289 3.56836 7.88047V8.01172H2.90117H2.23672L2.16289 8.08281C2.06172 8.18672 2.06172 8.38359 2.16289 8.4875L2.23672 8.55859H2.90117C3.26758 8.55859 3.56836 8.5668 3.56836 8.58047C3.56836 8.70352 3.67773 9.39531 3.72148 9.54844C3.73516 9.59492 3.67773 9.59766 2.80273 9.59766H1.86758L1.78828 9.67695C1.68164 9.78359 1.67617 9.9668 1.77461 10.0816L1.84023 10.1582L2.8793 10.1664L3.91562 10.1746L4.03047 10.4426C4.33398 11.1535 4.9 11.9082 5.5043 12.4168C7.29805 13.918 9.80273 14.1531 11.8316 13.0129C12.1625 12.8242 12.2363 12.7531 12.2363 12.6109C12.2363 12.4688 12.1352 12.3402 12.0039 12.3156C11.9219 12.302 11.8672 12.3211 11.6156 12.4633C10.8117 12.9145 10.1281 13.1113 9.25586 13.1441C8.75547 13.1605 8.33984 13.1141 7.84219 12.9883C5.87891 12.4797 4.42422 10.8199 4.16992 8.79375C4.11797 8.37813 4.14805 7.6125 4.23555 7.20234C4.64844 5.25 6.15781 3.73789 8.09375 3.34141C9.17109 3.11992 10.2621 3.25938 11.2656 3.74609C12.7832 4.48164 13.8141 5.9418 14.0137 7.63438C14.0574 8.00078 14.0355 8.7582 13.9727 9.07813C13.8496 9.7043 13.6391 10.2566 13.3191 10.7898C13.1961 10.9949 13.1852 11.1426 13.2918 11.2465C13.3848 11.3395 13.4914 11.3613 13.6117 11.3094C13.691 11.2766 13.7402 11.2164 13.8742 10.9922C14.1777 10.4754 14.4184 9.82734 14.5414 9.1875C14.5934 8.91406 14.6016 8.78008 14.6016 8.17578C14.6016 7.5168 14.5961 7.45938 14.525 7.12305C14.3773 6.43399 14.1012 5.74492 13.7539 5.20899C13.032 4.08789 11.9082 3.2457 10.6504 2.88477L10.3359 2.79453L10.3277 2.45273L10.3195 2.11094L10.3961 2.09453C10.5 2.06992 10.7352 1.90586 10.8062 1.81016C10.943 1.62695 10.9895 1.4957 11.0004 1.25781C11.0086 1.06641 11.0004 0.998047 10.9512 0.869532C10.8746 0.667188 10.6969 0.470313 10.4945 0.369141L10.3359 0.287109L9.11914 0.281641C7.95156 0.276173 7.89687 0.276173 7.76016 0.33086ZM10.2594 0.902344C10.4426 1.01172 10.4891 1.26602 10.3578 1.42461C10.2238 1.5832 10.2047 1.58594 9.07812 1.58594C8.10195 1.58594 8.04453 1.5832 7.94336 1.53125C7.81758 1.46836 7.74375 1.34531 7.74375 1.19766C7.74375 1.07461 7.80664 0.973438 7.92422 0.902344C8.00625 0.850391 8.06914 0.847656 9.0918 0.847656C10.1145 0.847656 10.1773 0.850391 10.2594 0.902344ZM9.74805 2.43633C9.74805 2.70977 9.74805 2.70977 9.68789 2.69063C9.60586 2.66328 8.57773 2.66328 8.49844 2.69063C8.43555 2.70977 8.43555 2.70977 8.43555 2.43633V2.16016H9.0918H9.74805V2.43633Z" fill="#088408"/>
    <path d="M8.61925 3.96483C7.93839 4.04959 7.31768 4.27381 6.78175 4.62108C4.96886 5.80506 4.32628 8.13748 5.27784 10.0762C5.70987 10.9594 6.48917 11.7058 7.37237 12.0887C7.93292 12.332 8.46886 12.4414 9.1005 12.4414C10.0657 12.4414 10.9189 12.1515 11.69 11.5664C11.9607 11.3586 12.3763 10.9238 12.5786 10.6394C13.3497 9.54022 13.5521 8.12928 13.1228 6.84139C12.8083 5.88709 12.1275 5.05037 11.247 4.52537C10.8314 4.27928 10.3364 4.09608 9.83057 4.00584C9.55167 3.95389 8.87628 3.93202 8.61925 3.96483ZM9.77042 4.58006C10.8888 4.79608 11.8759 5.5453 12.39 6.57069C12.8001 7.38006 12.8767 8.38084 12.6032 9.28866C12.5103 9.60038 12.245 10.1144 12.0345 10.3933C10.7001 12.157 8.16534 12.3758 6.57393 10.8609C5.74815 10.0762 5.32979 8.99061 5.42823 7.89139C5.51026 6.98905 5.87393 6.22342 6.52198 5.57811C7.1044 4.99842 7.85909 4.64022 8.73682 4.52811C8.92276 4.50623 9.5462 4.53631 9.77042 4.58006Z" fill="#088408"/>
    <path d="M8.97148 5.01758C8.8375 5.08867 8.82109 5.13515 8.81836 5.40312C8.81836 5.63281 8.82383 5.65742 8.88672 5.72304C8.97148 5.80781 9.07539 5.82968 9.20117 5.78867C9.32695 5.74492 9.39258 5.6164 9.39258 5.40586C9.39258 5.18984 9.33789 5.06679 9.21758 5.01758C9.09727 4.96562 9.06992 4.96562 8.97148 5.01758Z" fill="#088408"/>
    <path d="M10.8828 6.01836C10.8527 6.03476 10.5219 6.35469 10.1445 6.7293L9.46094 7.41015L9.32695 7.36914C9.15742 7.31719 9.02617 7.31719 8.85664 7.36914L8.72266 7.40742L8.39453 7.08476C8.03633 6.7293 7.96797 6.69375 7.79844 6.76484C7.68086 6.81133 7.64258 6.87695 7.64258 7.03008C7.64258 7.14219 7.65625 7.15859 7.97344 7.48125L8.3043 7.81484L8.27148 7.91875C8.25234 7.97617 8.23594 8.10469 8.23867 8.20586C8.23867 8.53672 8.41094 8.81289 8.71445 8.97422C8.88672 9.06445 9.29688 9.06445 9.46914 8.97422C9.72891 8.83476 9.88477 8.62695 9.93945 8.34531C9.96406 8.21406 9.94219 7.98437 9.8957 7.8668C9.88203 7.82578 10.016 7.67539 10.5848 7.10664L11.293 6.39844V6.27265C11.293 6.16601 11.2793 6.13594 11.2027 6.06758C11.1098 5.98281 10.984 5.96367 10.8828 6.01836ZM9.28867 8.00625C9.40352 8.12383 9.40078 8.27969 9.28594 8.39726C9.03437 8.64609 8.64336 8.27695 8.88125 8.01445C9.0043 7.8832 9.16289 7.87773 9.28867 8.00625Z" fill="#088408"/>
    <path d="M6.02383 7.94336C5.92539 7.99805 5.89258 8.06367 5.89258 8.20312C5.89258 8.29336 5.90898 8.33438 5.97187 8.39727C6.04844 8.47383 6.06484 8.47656 6.28633 8.47656C6.50781 8.47656 6.52695 8.47109 6.60898 8.39727C6.68555 8.32891 6.69922 8.29883 6.69922 8.19219C6.69922 8.09375 6.68281 8.05273 6.62266 7.99258C6.5543 7.92422 6.52695 7.91602 6.32188 7.90781C6.16055 7.90234 6.07578 7.91328 6.02383 7.94336Z" fill="#088408"/>
    <path d="M11.643 7.94336C11.5527 7.98164 11.4707 8.10469 11.4707 8.20312C11.4707 8.28242 11.5445 8.41367 11.6047 8.44922C11.6348 8.46289 11.766 8.47656 11.8945 8.47656C12.1188 8.47656 12.1352 8.47383 12.2117 8.39727C12.3703 8.23594 12.291 7.9625 12.0695 7.91875C11.9301 7.89141 11.7359 7.90234 11.643 7.94336Z" fill="#088408"/>
    <path d="M8.89492 10.6613C8.80469 10.7406 8.80469 10.7434 8.80469 10.9922C8.80469 11.241 8.80469 11.2437 8.89492 11.323C9.01797 11.4352 9.17383 11.4352 9.28594 11.323C9.3625 11.2465 9.36523 11.2328 9.36523 10.9922C9.36523 10.7516 9.3625 10.7379 9.28594 10.6613C9.17383 10.5492 9.01797 10.5492 8.89492 10.6613Z" fill="#088408"/>
    <path d="M0.762697 9.62227C0.615041 9.68516 0.563087 9.93672 0.669728 10.0707C0.773634 10.202 1.0252 10.191 1.1209 10.0516C1.18379 9.96407 1.17285 9.77813 1.09903 9.69336C1.0334 9.61407 0.863869 9.57852 0.762697 9.62227Z" fill="#088408"/>
    <path d="M12.6137 11.7004C12.5371 11.7687 12.5234 11.7988 12.5234 11.9082C12.5234 12.0176 12.5371 12.0477 12.6137 12.116C12.7148 12.2062 12.8242 12.2172 12.9473 12.1543C13.0484 12.1023 13.084 12.0367 13.084 11.9082C13.084 11.7797 13.0484 11.7141 12.9473 11.6621C12.8242 11.5992 12.7148 11.6102 12.6137 11.7004Z" fill="#088408"/>
</svg>
