<svg width="22" height="22" viewBox="0 0 22 22" fill="none" xmlns="http://www.w3.org/2000/svg">
    <path d="M7.03999 4.83984C11.396 4.83984 15.752 4.83984 20.24 4.83984C20.24 9.92184 20.24 15.0038 20.24 20.2398C15.884 20.2398 11.528 20.2398 7.03999 20.2398C7.03999 15.1578 7.03999 10.0758 7.03999 4.83984ZM7.91999 5.71984C7.91999 10.221 7.91999 14.7222 7.91999 19.3598C11.6952 19.3598 15.4704 19.3598 19.36 19.3598C19.36 14.8586 19.36 10.3574 19.36 5.71984C15.5848 5.71984 11.8096 5.71984 7.91999 5.71984Z" fill="black"/>
    <path d="M1.75999 1.75977C6.11599 1.75977 10.472 1.75977 14.96 1.75977C14.96 2.48577 14.96 3.21177 14.96 3.95977C14.6696 3.95977 14.3792 3.95977 14.08 3.95977C14.08 3.52417 14.08 3.08857 14.08 2.63977C10.3048 2.63977 6.52959 2.63977 2.63999 2.63977C2.63999 6.99577 2.63999 11.3518 2.63999 15.8398C3.80159 15.8398 4.96319 15.8398 6.15999 15.8398C6.15999 16.1302 6.15999 16.4206 6.15999 16.7198C4.70799 16.7198 3.25599 16.7198 1.75999 16.7198C1.75999 11.783 1.75999 6.84617 1.75999 1.75977Z" fill="black"/>
    <path d="M9.67999 13.6401C12.4388 13.6401 15.1976 13.6401 18.04 13.6401C18.04 13.9305 18.04 14.2209 18.04 14.5201C15.2812 14.5201 12.5224 14.5201 9.67999 14.5201C9.67999 14.2297 9.67999 13.9393 9.67999 13.6401Z" fill="black"/>
    <path d="M9.67999 8.35986C12.4388 8.35986 15.1976 8.35986 18.04 8.35986C18.04 8.65026 18.04 8.94066 18.04 9.23986C15.2812 9.23986 12.5224 9.23986 9.67999 9.23986C9.67999 8.94946 9.67999 8.65906 9.67999 8.35986Z" fill="black"/>
    <path d="M9.67999 16.2798C11.7128 16.2798 13.7456 16.2798 15.84 16.2798C15.84 16.5702 15.84 16.8606 15.84 17.1598C13.8072 17.1598 11.7744 17.1598 9.67999 17.1598C9.67999 16.8694 9.67999 16.579 9.67999 16.2798Z" fill="black"/>
    <path d="M9.67999 11C11.7128 11 13.7456 11 15.84 11C15.84 11.2904 15.84 11.5808 15.84 11.88C13.8072 11.88 11.7744 11.88 9.67999 11.88C9.67999 11.5896 9.67999 11.2992 9.67999 11Z" fill="black"/>
    <path d="M4.39999 12.7598C4.98079 12.7598 5.56159 12.7598 6.15999 12.7598C6.15999 13.0502 6.15999 13.3406 6.15999 13.6398C5.57919 13.6398 4.99839 13.6398 4.39999 13.6398C4.39999 13.3494 4.39999 13.059 4.39999 12.7598Z" fill="black"/>
    <path d="M4.39999 10.1201C4.98079 10.1201 5.56159 10.1201 6.15999 10.1201C6.15999 10.4105 6.15999 10.7009 6.15999 11.0001C5.57919 11.0001 4.99839 11.0001 4.39999 11.0001C4.39999 10.7097 4.39999 10.4193 4.39999 10.1201Z" fill="black"/>
    <path d="M4.39999 7.47998C4.98079 7.47998 5.56159 7.47998 6.15999 7.47998C6.15999 7.77038 6.15999 8.06078 6.15999 8.35998C5.57919 8.35998 4.99839 8.35998 4.39999 8.35998C4.39999 8.06958 4.39999 7.77918 4.39999 7.47998Z" fill="black"/>
    <path d="M4.39999 4.83984C4.98079 4.83984 5.56159 4.83984 6.15999 4.83984C6.15999 5.13024 6.15999 5.42064 6.15999 5.71984C5.57919 5.71984 4.99839 5.71984 4.39999 5.71984C4.39999 5.42944 4.39999 5.13904 4.39999 4.83984Z" fill="black"/>
</svg>
